<?xml version="1.0" encoding="utf-8"?>
<!-- Generator: Adobe Illustrator 19.0.0, SVG Export Plug-In . SVG Version: 6.00 Build 0)  -->
<svg version="1.1" id="Capa_1" xmlns="http://www.w3.org/2000/svg" xmlns:xlink="http://www.w3.org/1999/xlink" x="0px" y="0px"
	 viewBox="-67 44.8 63.2 63.2" style="enable-background:new -67 44.8 63.2 63.2;" xml:space="preserve">
<style type="text/css">
	.st0{fill:#3F51B5;}
	.st1{opacity:0.35;fill:#231F20;enable-background:new    ;}
	.st2{fill:#FFFFFF;}
	.st3{opacity:0.8;}
</style>
<path class="st0" d="M-35.4,108C-52.8,108-67,93.8-67,76.4s14.2-31.6,31.6-31.6S-3.8,59-3.8,76.4C-3.8,93.9-17.9,108-35.4,108z"/>
<path class="st1" d="M-35.4,46.8c16.3,0,29.6,13.3,29.6,29.6S-19.1,106-35.4,106S-65,92.7-65,76.4S-51.8,46.8-35.4,46.8 M-35.4,44.8
	C-52.8,44.8-67,58.9-67,76.4S-52.9,108-35.4,108S-3.8,93.9-3.8,76.4S-18,44.8-35.4,44.8L-35.4,44.8z"/>
<g>
	<g>
		<path class="st2" d="M-35.4,87.7c-4.6,0-8.4-3.8-8.4-8.4v-3.2c0-0.3,0.2-0.5,0.5-0.5s0.5,0.2,0.5,0.5v3.2c0,4.1,3.3,7.3,7.3,7.3
			s7.4-3.3,7.4-7.3v-3.2c0-0.3,0.2-0.5,0.5-0.5s0.5,0.2,0.5,0.5v3.2C-27,83.9-30.8,87.7-35.4,87.7z"/>
	</g>
	<g class="st3">
		<path class="st2" d="M-35.4,84.5L-35.4,84.5c-2.9,0-5.2-2.4-5.2-5.2V66.7c0-2.9,2.4-5.2,5.2-5.2l0,0c2.9,0,5.2,2.4,5.2,5.2v12.6
			C-30.2,82.2-32.5,84.5-35.4,84.5z"/>
	</g>
	<g>
		<path class="st2" d="M-35.4,91.4c-0.3,0-0.5-0.2-0.5-0.5v-3.7c0-0.3,0.2-0.5,0.5-0.5c0.3,0,0.5,0.2,0.5,0.5v3.7
			C-34.9,91.1-35.1,91.4-35.4,91.4z"/>
	</g>
	<g>
		<path class="st2" d="M-30.2,79.3V66.7c0-2.9-2.4-5.2-5.2-5.2v23.1C-32.5,84.5-30.2,82.2-30.2,79.3z"/>
	</g>
</g>
</svg>
