<?xml version="1.0" encoding="utf-8"?>
<!-- Generator: Adobe Illustrator 19.0.0, SVG Export Plug-In . SVG Version: 6.00 Build 0)  -->
<svg version="1.1" id="Capa_1" xmlns="http://www.w3.org/2000/svg" xmlns:xlink="http://www.w3.org/1999/xlink" x="0px" y="0px"
	 viewBox="-67 44.8 63.2 63.2" style="enable-background:new -67 44.8 63.2 63.2;" xml:space="preserve">
<style type="text/css">
	.st0{fill:#FFDA44;}
	.st1{opacity:0.35;fill:#231F20;enable-background:new    ;}
	.st2{fill:#FFFFFF;}
</style>
<path class="st0" d="M-35.4,108C-52.8,108-67,93.8-67,76.4s14.2-31.6,31.6-31.6S-3.8,59-3.8,76.4C-3.8,93.9-17.9,108-35.4,108z"/>
<path class="st1" d="M-35.4,46.8c16.3,0,29.6,13.3,29.6,29.6S-19.1,106-35.4,106S-65,92.7-65,76.4S-51.8,46.8-35.4,46.8 M-35.4,44.8
	C-52.8,44.8-67,58.9-67,76.4S-52.9,108-35.4,108S-3.8,93.9-3.8,76.4S-18,44.8-35.4,44.8L-35.4,44.8z"/>
<g>
	<g>
		<g>
			<path class="st2" d="M-24.1,83.3l-3.7-3.7c-0.7-0.7-1.9-0.7-2.7,0.1l-1.8,1.8c-0.1-0.1-0.2-0.1-0.4-0.2c-1.2-0.6-2.8-1.5-4.4-3.2
				c-1.7-1.7-2.6-3.3-3.2-4.4c-0.1-0.1-0.1-0.2-0.2-0.4l1.2-1.2l0.6-0.6c0.8-0.8,0.8-2,0-2.7l-3.7-3.7c-0.7-0.7-1.9-0.7-2.7,0.1
				l-1,1l0,0c-0.3,0.4-0.6,0.9-0.8,1.5c-0.2,0.5-0.3,1-0.4,1.5c-0.5,4,1.3,7.7,6.3,12.6c6.9,6.9,12.4,6.3,12.6,6.3
				c0.5-0.1,1-0.2,1.5-0.4c0.5-0.2,1.1-0.5,1.5-0.8l0,0l1-1C-23.4,85.2-23.4,84-24.1,83.3z"/>
		</g>
	</g>
</g>
</svg>
