<?xml version="1.0" encoding="utf-8"?>
<!-- Generator: Adobe Illustrator 19.0.0, SVG Export Plug-In . SVG Version: 6.00 Build 0)  -->
<svg version="1.1" id="Capa_1" xmlns="http://www.w3.org/2000/svg" xmlns:xlink="http://www.w3.org/1999/xlink" x="0px" y="0px"
	 viewBox="141 -141.9 482.9 482.9" style="enable-background:new 141 -141.9 482.9 482.9;" xml:space="preserve">
<style type="text/css">
	.st0{fill:#EDEDED;}
	.st1{fill:#424242;}
	.st2{fill:none;stroke:#424242;stroke-width:13;stroke-miterlimit:10;}
</style>
<rect x="141" y="-141.9" class="st0" width="482.9" height="482.9"/>
<g>
	<g>
		<path class="st1" d="M365.4,106.5c0.3,0,0.6,0,0.9,0c0.1,0,0.2,0,0.3,0c0.2,0,0.4,0,0.6,0c17.1-0.3,30.9-6.3,41-17.8
			c22.4-25.3,18.7-68.6,18.3-72.7c-1.5-31-16.1-45.9-28.2-52.8c-9-5.2-19.6-8-31.3-8.2h-0.4c-0.1,0-0.2,0-0.2,0h-0.3
			c-6.5,0-19.2,1-31.3,8c-12.2,6.9-27.1,21.8-28.6,53c-0.4,4.1-4.1,47.4,18.3,72.7C334.6,100.2,348.4,106.2,365.4,106.5z
			 M321.7,17.5c0-0.2,0.1-0.3,0.1-0.5c1.9-41.7,31.5-46.2,44.2-46.2h0.2c0.1,0,0.3,0,0.5,0c15.7,0.3,42.4,6.8,44.2,46.2
			c0,0.2,0,0.3,0.1,0.5c0.1,0.4,4.1,40-14.4,60.8c-7.3,8.3-17.1,12.3-30,12.5c-0.1,0-0.2,0-0.3,0l0,0c-0.1,0-0.2,0-0.3,0
			c-12.8-0.1-22.6-4.2-29.9-12.5C317.7,57.6,321.7,17.8,321.7,17.5z"/>
		<path class="st1" d="M409.5,125h4.5v-10.5h8.4c-7.3-4-11.8-7.1-11.8-7.2c-3.6-2.5-8.4-1.6-10.9,1.9c-2.5,3.6-1.6,8.4,1.9,10.9
			c0.3,0.2,3.2,2.2,7.9,5V125z"/>
		<path class="st1" d="M403,217.7c-11,1.6-23.2,2.7-36.5,2.7c-56,0-93.2-18.6-102.7-23.9c-0.9-4.7-1.3-12.7-1.2-18
			c0-0.5,0.1-0.9,0.1-1.5c0.4-13.3,1.9-27.8,15.5-32.6c29-7.5,52.2-23.6,53.1-24.3c3.6-2.5,4.4-7.4,1.9-10.9
			c-2.5-3.6-7.4-4.4-10.9-1.9c-0.2,0.2-21.9,15.3-48.3,22c-0.2,0.1-0.4,0.1-0.6,0.2c-25.3,8.7-26,35.6-26.4,47.1c0,0.5,0,1-0.1,1.5
			c0,0.1,0,0.1,0,0.2c-0.1,3-0.1,18.6,3,26.4c0.6,1.5,1.6,2.8,3,3.7c1.7,1.2,43.6,27.8,113.6,27.8c13.2,0,25.4-0.9,36.5-2.5V217.7z"
			/>
	</g>
</g>
<circle class="st2" cx="451.1" cy="177.3" r="66.8"/>
<g>
	<path class="st1" d="M451.1,167.3c-6.9,0-12.5,5.6-12.5,12.5s5.6,12.5,12.5,12.5c6.9,0,12.5-5.6,12.5-12.5S458.1,167.3,451.1,167.3
		z"/>
	<path class="st1" d="M477.5,162.1h-8.9l-4.2-10.5H438l-4.2,10.5h-1.4v-5.2h-6.3v5.2h-1.2c-2.8,0-5,2.3-5,5v30.7
		c0,2.8,2.3,5.1,5.1,5.1h52.6c2.8,0,5.1-2.3,5.1-5.1v-30.7C482.5,164.4,480.3,162.1,477.5,162.1z M430.3,162.1h-2.1V159h2.1V162.1z
		 M451.1,198.7c-10.4,0-18.8-8.4-18.8-18.8c0-10.4,8.4-18.8,18.8-18.8c10.4,0,18.8,8.4,18.8,18.8
		C469.9,190.3,461.5,198.7,451.1,198.7z M474.2,174.7c-2.3,0-4.2-1.9-4.2-4.2s1.9-4.2,4.2-4.2s4.2,1.9,4.2,4.2
		S476.5,174.7,474.2,174.7z"/>
</g>
</svg>
