<?xml version="1.0" encoding="utf-8"?>
<!-- Generator: Adobe Illustrator 22.1.0, SVG Export Plug-In . SVG Version: 6.00 Build 0)  -->
<svg version="1.1" id="Capa_1" xmlns="http://www.w3.org/2000/svg" xmlns:xlink="http://www.w3.org/1999/xlink" x="0px" y="0px"
	 viewBox="0 0 60 60" style="enable-background:new 0 0 60 60;" xml:space="preserve">
<style type="text/css">
	.st0{fill:#7A6CE5;}
	.st1{fill:#6D58CF;}
</style>
<g>
	<polygon class="st0" points="15,14 15.6,5.5 18.7,3.7 27.1,3.7 55,3.7 58,5.1 59.1,8.8 59.1,30 58,32.6 54.9,34.2 52.5,34.7 
		51.9,35.5 52.1,44.4 51.7,45.2 45.8,38.2 44.8,36.8 45,19.6 44.4,17.1 43.7,16 42.3,14.9 40.6,14.3 15,14.7 	"/>
	<g>
		<path class="st0" d="M10,25.5h13c0.6,0,1-0.4,1-1s-0.4-1-1-1H10c-0.6,0-1,0.4-1,1S9.4,25.5,10,25.5z"/>
		<path class="st0" d="M36,29.5H10c-0.6,0-1,0.4-1,1s0.4,1,1,1h26c0.6,0,1-0.4,1-1S36.6,29.5,36,29.5z"/>
		<path class="st0" d="M36,35.5H10c-0.6,0-1,0.4-1,1s0.4,1,1,1h26c0.6,0,1-0.4,1-1S36.6,35.5,36,35.5z"/>
		<path class="st1" d="M54.1,2.5L20,2.4c-3.3,0-5.9,2.7-5.9,5.9v5.1H6c-3.3,0-5.9,2.7-5.9,5.9v21.1c0,3.3,2.7,5.9,5.9,5.9h6.1v10
			c0,0.4,0.3,0.8,0.6,0.9c0.1,0,0.2,0.1,0.4,0.1c0.3,0,0.5-0.1,0.7-0.3l9.7-10.7l16.6-0.1c3.3,0,5.9-2.7,5.9-5.9v-0.1l5.3,5.8
			c0.2,0.2,0.5,0.3,0.7,0.3c0.1,0,0.2,0,0.4-0.1c0.4-0.1,0.6-0.5,0.6-0.9v-10h1.1c3.3,0,5.9-2.7,5.9-5.9V8.5
			C60,5.2,57.3,2.5,54.1,2.5z M44,40.5c0,2.2-1.8,3.9-3.9,3.9L23,44.5c-0.3,0-0.5,0.1-0.7,0.3L14,53.9v-8.4c0-0.6-0.4-1-1-1H5.9
			c-2.2,0-3.9-1.8-3.9-3.9V19.5c0-2.2,1.8-3.9,3.9-3.9H15l0,0l0,0l25.1-0.1c2.2,0,3.9,1.8,3.9,3.9v18.4V40.5z M58,29.6
			c0,2.2-1.8,3.9-3.9,3.9H52c-0.6,0-1,0.4-1,1v8.4l-5-5.5v-18c0-3.3-2.7-5.9-5.9-5.9H16V8.4c0-2.2,1.8-3.9,3.9-3.9L54,4.6l0,0
			c2.2,0,3.9,1.8,3.9,3.9L58,29.6L58,29.6z"/>
	</g>
</g>
</svg>
