<?xml version="1.0" encoding="utf-8"?>
<!-- Generator: Adobe Illustrator 19.0.0, SVG Export Plug-In . SVG Version: 6.00 Build 0)  -->
<svg version="1.1" id="Capa_1" xmlns="http://www.w3.org/2000/svg" xmlns:xlink="http://www.w3.org/1999/xlink" x="0px" y="0px"
	 viewBox="10.7 84.7 63.2 63.2" style="enable-background:new 10.7 84.7 63.2 63.2;" xml:space="preserve">
<style type="text/css">
	.st0{fill:#009688;}
	.st1{opacity:0.35;fill:#231F20;}
	.st2{fill:#FFFFFF;}
	.st3{fill:#666666;}
</style>
<path class="st0" d="M42.2,147.8c-17.4,0-31.6-14.2-31.6-31.6c0-17.4,14.2-31.6,31.6-31.6s31.6,14.2,31.6,31.6
	C73.8,133.7,59.7,147.8,42.2,147.8z"/>
<path class="st1" d="M42.3,86.7c16.3,0,29.6,13.3,29.6,29.6s-13.3,29.6-29.6,29.6s-29.6-13.3-29.6-29.6S25.9,86.7,42.3,86.7
	 M42.3,84.7c-17.4,0-31.6,14.1-31.6,31.6s14.1,31.6,31.6,31.6s31.6-14.1,31.6-31.6S59.7,84.7,42.3,84.7L42.3,84.7z"/>
<g>
	<path class="st2" d="M32.9,101.5H54c0.9,0,1.6,0.7,1.6,1.6v26.3c0,0.9-0.7,1.6-1.6,1.6H32.9c-0.9,0-1.6-0.7-1.6-1.6V103
		C31.4,102.2,32.1,101.5,32.9,101.5z"/>
	<g>
		<circle class="st0" cx="43.5" cy="110.9" r="3.4"/>
		<path class="st0" d="M41.3,116.3h4.3c2.6,0,4.6,2.1,4.6,4.6v2.9H36.7V121C36.7,118.4,38.8,116.3,41.3,116.3z"/>
	</g>
	<g>
		<path class="st3" d="M30.2,106.1h2.2c0.7,0,1.3,0.6,1.3,1.3l0,0c0,0.7-0.6,1.3-1.3,1.3h-2.2c-0.7,0-1.3-0.6-1.3-1.3l0,0
			C28.9,106.7,29.5,106.1,30.2,106.1z"/>
		<path class="st3" d="M30.2,114.9h2.2c0.7,0,1.3,0.6,1.3,1.3l0,0c0,0.7-0.6,1.3-1.3,1.3h-2.2c-0.7,0-1.3-0.6-1.3-1.3l0,0
			C28.9,115.5,29.5,114.9,30.2,114.9z"/>
		<path class="st3" d="M30.2,123.7h2.2c0.7,0,1.3,0.6,1.3,1.3l0,0c0,0.7-0.6,1.3-1.3,1.3h-2.2c-0.7,0-1.3-0.6-1.3-1.3l0,0
			C28.9,124.3,29.5,123.7,30.2,123.7z"/>
	</g>
</g>
</svg>
