<?xml version="1.0" encoding="utf-8"?>
<!-- Generator: Adobe Illustrator 19.0.0, SVG Export Plug-In . SVG Version: 6.00 Build 0)  -->
<svg version="1.1" id="Capa_1" xmlns="http://www.w3.org/2000/svg" xmlns:xlink="http://www.w3.org/1999/xlink" x="0px" y="0px"
	 viewBox="10.7 84.7 63.2 63.2" style="enable-background:new 10.7 84.7 63.2 63.2;" xml:space="preserve">
<style type="text/css">
	.st0{fill:#006DF0;}
	.st1{opacity:0.35;fill:#231F20;}
	.st2{fill:#FFFFFF;}
	.st3{fill:#D8D8D8;}
</style>
<path class="st0" d="M42.2,147.8c-17.4,0-31.6-14.2-31.6-31.6c0-17.4,14.2-31.6,31.6-31.6s31.6,14.2,31.6,31.6
	C73.8,133.7,59.7,147.8,42.2,147.8z"/>
<path class="st1" d="M42.3,86.7c16.3,0,29.6,13.3,29.6,29.6s-13.3,29.6-29.6,29.6s-29.6-13.3-29.6-29.6S25.9,86.7,42.3,86.7
	 M42.3,84.7c-17.4,0-31.6,14.1-31.6,31.6s14.1,31.6,31.6,31.6s31.6-14.1,31.6-31.6S59.7,84.7,42.3,84.7L42.3,84.7z"/>
<g>
	<polygon class="st2" points="54.1,108.4 46.7,100.9 30.4,100.9 30.4,131.6 54.1,131.6 	"/>
	<polygon class="st3" points="46.7,100.9 46.7,108.4 54.1,108.4 	"/>
	<g>
		<path class="st3" d="M35,109.3h4.8c0.3,0,0.5-0.3,0.5-0.5c0-0.3-0.3-0.5-0.5-0.5H35c-0.3,0-0.5,0.3-0.5,0.5
			C34.5,109,34.8,109.3,35,109.3z"/>
		<path class="st3" d="M44.1,120H35c-0.3,0-0.5,0.3-0.5,0.5s0.3,0.5,0.5,0.5h9.1c0.3,0,0.5-0.3,0.5-0.5
			C44.7,120.2,44.4,120,44.1,120z"/>
		<path class="st3" d="M49.5,116.3h-3.7c-0.3,0-0.5,0.3-0.5,0.5s0.3,0.5,0.5,0.5h3.7c0.3,0,0.5-0.3,0.5-0.5
			C49.9,116.5,49.7,116.3,49.5,116.3z"/>
		<path class="st3" d="M35,113.6h2.7c0.3,0,0.5-0.3,0.5-0.5c0-0.3-0.3-0.5-0.5-0.5H35c-0.3,0-0.5,0.3-0.5,0.5
			C34.6,113.3,34.8,113.6,35,113.6z"/>
		<path class="st3" d="M43,113.6h3.7c0.3,0,0.5-0.3,0.5-0.5c0-0.3-0.3-0.5-0.5-0.5H43c-0.3,0-0.5,0.3-0.5,0.5
			C42.5,113.3,42.7,113.6,43,113.6z"/>
		<path class="st3" d="M39.8,113c0,0.1,0,0.3,0.1,0.4c0.1,0.1,0.3,0.1,0.4,0.1c0.1,0,0.3,0,0.4-0.1c0.1-0.1,0.1-0.3,0.1-0.4
			c0-0.1,0-0.3-0.1-0.4c-0.1-0.1-0.5-0.1-0.7,0C40,112.7,39.8,112.9,39.8,113z"/>
		<path class="st3" d="M37.8,116.3c-0.3,0-0.5,0.3-0.5,0.5s0.3,0.5,0.5,0.5h5.4c0.3,0,0.5-0.3,0.5-0.5c0-0.3-0.3-0.5-0.5-0.5H37.8z"
			/>
		<path class="st3" d="M35,117.3c0.1,0,0.3,0,0.4-0.1c0.1-0.1,0.1-0.3,0.1-0.4c0-0.1,0-0.3-0.1-0.4c-0.1-0.1-0.5-0.1-0.7,0
			c-0.1,0.1-0.1,0.3-0.1,0.4c0,0.1,0,0.3,0.1,0.4C34.8,117.3,34.9,117.3,35,117.3z"/>
		<path class="st3" d="M49.5,123.7h-3.7c-0.3,0-0.5,0.3-0.5,0.5c0,0.3,0.3,0.5,0.5,0.5h3.7c0.3,0,0.5-0.3,0.5-0.5
			C49.9,123.9,49.7,123.7,49.5,123.7z"/>
		<path class="st3" d="M43,123.7h-5.2c-0.3,0-0.5,0.3-0.5,0.5c0,0.3,0.3,0.5,0.5,0.5h5.4c0.3,0,0.5-0.3,0.5-0.5
			C43.6,123.9,43.3,123.7,43,123.7z"/>
		<path class="st3" d="M34.8,123.9c-0.1,0.1-0.1,0.3-0.1,0.4c0,0.1,0,0.3,0.1,0.4c0.1,0.1,0.3,0.1,0.4,0.1s0.3,0,0.4-0.1
			c0.1-0.1,0.1-0.3,0.1-0.4c0-0.1,0-0.3-0.1-0.4C35.3,123.6,34.9,123.6,34.8,123.9z"/>
		<path class="st3" d="M49.5,113.6c0.1,0,0.3,0,0.4-0.1c0.1-0.1,0.1-0.3,0.1-0.4c0-0.1,0-0.3-0.1-0.4c-0.1-0.1-0.5-0.1-0.7,0
			c-0.1,0.1-0.1,0.3-0.1,0.4c0,0.1,0,0.3,0.1,0.4C49.2,113.6,49.3,113.6,49.5,113.6z"/>
		<path class="st3" d="M47.1,120.8c0.1-0.1,0.1-0.3,0.1-0.4c0-0.1,0-0.3-0.1-0.4c-0.1-0.1-0.5-0.1-0.7,0c-0.1,0.1-0.1,0.3-0.1,0.4
			c0,0.1,0,0.3,0.1,0.4c0.1,0.1,0.3,0.1,0.4,0.1C46.8,121,47,121,47.1,120.8z"/>
		<path class="st3" d="M49,120.2c-0.1,0.1-0.1,0.3-0.1,0.4c0,0.1,0,0.3,0.1,0.4c0.1,0.1,0.3,0.1,0.4,0.1c0.1,0,0.3,0,0.4-0.1
			c0.1-0.1,0.1-0.3,0.1-0.4c0-0.1,0-0.3-0.1-0.4C49.6,119.9,49.2,119.9,49,120.2z"/>
	</g>
</g>
</svg>
