<?xml version="1.0" encoding="utf-8"?>
<!-- Generator: Adobe Illustrator 19.0.0, SVG Export Plug-In . SVG Version: 6.00 Build 0)  -->
<svg version="1.1" id="Capa_1" xmlns="http://www.w3.org/2000/svg" xmlns:xlink="http://www.w3.org/1999/xlink" x="0px" y="0px"
	 viewBox="-65 49.3 68.6 52.7" style="enable-background:new -65 49.3 68.6 52.7;" xml:space="preserve">
<style type="text/css">
	.st0{fill:#FFBA6C;}
	.st1{fill:#EBF3FF;}
	.st2{fill:#7EB1FA;}
	.st3{fill:#9E8CE8;}
	.st4{fill:#66E8A6;}
	.st5{fill:#FFE06D;}
	.st6{fill:#74D687;}
	.st7{fill:#FA7E7E;}
	.st8{fill:none;stroke:#546B8D;stroke-width:2;stroke-miterlimit:10;}
	.st9{fill:url(#SVGID_1_);}
	.st10{fill:url(#SVGID_2_);}
	.st11{fill:#546B8D;}
	.st12{fill:#9EADFF;}
	.st13{fill:#424A60;}
	.st14{fill:none;stroke:#7588EC;stroke-miterlimit:10;}
	.st15{fill:#485CCB;}
	.st16{fill:#F8F2EC;}
	.st17{fill:#ADBAFF;}
	.st18{clip-path:url(#SVGID_4_);}
	.st19{fill:#E69F5F;}
	.st20{fill:#E09156;}
	.st21{fill:#FFD7A3;}
	.st22{fill:#FDC88E;}
	.st23{fill:#FFE1B2;}
	.st24{fill:#623F33;}
	.st25{fill:#E4B07B;}
	.st26{fill:#FF6473;}
	.st27{fill:#F05467;}
	.st28{fill:#D4445A;}
	.st29{clip-path:url(#SVGID_6_);}
	.st30{fill:#734A3E;}
	.st31{fill:#00BEA4;}
	.st32{fill:#00AB9A;}
</style>
<circle class="st0" cx="66.1" cy="16.5" r="0"/>
<g>
	<path class="st1" d="M-48.7,76.7l-0.7-0.9c-0.4-0.6-0.3-1.4,0.3-1.9l16.7-12.1c0.6-0.4,1.4-0.3,1.9,0.3l0.7,0.9
		c0.4,0.6,0.3,1.4-0.3,1.9L-46.8,77C-47.4,77.4-48.2,77.3-48.7,76.7z"/>
	<path class="st1" d="M-54.5,89.7l-0.7-0.9c-0.4-0.6-0.3-1.4,0.3-1.9L-20,61.5c0.6-0.4,1.4-0.3,1.9,0.3l0.7,0.9
		c0.4,0.6,0.3,1.4-0.3,1.9L-52.6,90C-53.2,90.4-54,90.3-54.5,89.7z"/>
	<path class="st1" d="M-46.2,93.8l-0.7-0.9c-0.4-0.6-0.3-1.4,0.3-1.9L-15,68c0.6-0.4,1.4-0.3,1.9,0.3l0.7,0.9
		c0.4,0.6,0.3,1.4-0.3,1.9l-31.6,23C-44.9,94.5-45.8,94.4-46.2,93.8z"/>
	<path class="st1" d="M-39.1,99.2l-0.7-0.9c-0.4-0.6-0.3-1.4,0.3-1.9l24.7-18c0.6-0.4,1.4-0.3,1.9,0.3l0.7,0.9
		c0.4,0.6,0.3,1.4-0.3,1.9l-24.7,18C-37.8,99.9-38.7,99.8-39.1,99.2z"/>
	<path class="st1" d="M-24.6,87.9c0.2-0.2,0.4-0.3,0.6-0.5c1.1-0.9,1.2-2.2,0.1-2.3c-1.2-0.1-2.2-0.6-2.8-1.5s-0.8-2-0.5-3.1
		c0.2-1-1-1.4-2.2-0.6c-0.2,0.1-0.4,0.3-0.6,0.4c-1.1,0.8-2,1.8-2.6,2.9c-0.4,0.7-0.2,1.3,0.5,1.4c0.9,0.2,1.7,0.6,2.2,1.4
		c0.5,0.7,0.7,1.6,0.6,2.5c-0.1,0.7,0.4,1,1.2,0.9C-27,89.3-25.7,88.8-24.6,87.9z"/>
</g>
<g>
	<g>
		<g>
			<path class="st2" d="M-17.8,51.8c-0.7,0-1.3-0.6-1.3-1.3s0.6-1.3,1.3-1.3s1.3,0.6,1.3,1.3C-16.6,51.2-17.1,51.8-17.8,51.8z
				 M-17.8,49.8c-0.4,0-0.8,0.3-0.8,0.8c0,0.4,0.3,0.8,0.8,0.8c0.4,0,0.8-0.3,0.8-0.8C-17.1,50.1-17.4,49.8-17.8,49.8z"/>
		</g>
		<g>
			<path class="st3" d="M-54.1,96.7c-0.5,0-1-0.4-1-1c0-0.5,0.4-1,1-1c0.6,0,1,0.4,1,1C-53.1,96.3-53.5,96.7-54.1,96.7z M-54.1,95.3
				c-0.3,0-0.5,0.2-0.5,0.5c0,0.3,0.2,0.5,0.5,0.5c0.3,0,0.5-0.2,0.5-0.5C-53.6,95.5-53.8,95.3-54.1,95.3z"/>
		</g>
		<g>
			<path class="st4" d="M-11.4,87.5c-0.7,0-1.3-0.6-1.3-1.3c0-0.7,0.6-1.3,1.3-1.3s1.3,0.6,1.3,1.3C-10.2,86.9-10.7,87.5-11.4,87.5z
				 M-11.4,85.5c-0.4,0-0.8,0.3-0.8,0.8c0,0.4,0.3,0.8,0.8,0.8c0.4,0,0.8-0.3,0.8-0.8C-10.7,85.8-11,85.5-11.4,85.5z"/>
		</g>
		<g>
			<path class="st5" d="M-47,58.5l-1.7-1.7L-47,55l1.7,1.7L-47,58.5z M-48,56.8l1,1l1-1l-1-1L-48,56.8z"/>
		</g>
		<g>
			<path class="st6" d="M-54.4,76.7h-3.5l1.8-3.6L-54.4,76.7z M-57.1,76.2h1.9l-1-2L-57.1,76.2z"/>
		</g>
		<g>
			<path class="st7" d="M-6,98h-2.5l1.2-2.5L-6,98z M-7.7,97.5h0.9l-0.4-0.9L-7.7,97.5z"/>
		</g>
	</g>
	<polygon class="st5" points="-12.2,63.2 -13.1,63 -13.9,63.7 -13.9,62.7 -14.8,62.2 -13.9,61.8 -13.7,60.9 -13.1,61.6 -12.1,61.5 
		-12.6,62.3 	"/>
</g>
<path class="st8" d="M-19.1,79c0,0,11.8,1.1,14.1-7.6"/>
<g>
	
		<linearGradient id="SVGID_1_" gradientUnits="userSpaceOnUse" x1="-8.9218" y1="88.4218" x2="1.4433" y2="78.0568" gradientTransform="matrix(1 0 0 -1 0 152.6)">
		<stop  offset="0" style="stop-color:#FFC77E"/>
		<stop  offset="0.9984" style="stop-color:#FFA953"/>
	</linearGradient>
	<circle class="st9" cx="-3.7" cy="69.4" r="7.4"/>
</g>
<path class="st8" d="M-42.4,78c0,0-11.8-1.1-14.1,7.6"/>
<g>
	
		<linearGradient id="SVGID_2_" gradientUnits="userSpaceOnUse" x1="26.6641" y1="190.7764" x2="37.0292" y2="180.4113" gradientTransform="matrix(-1 0 0 1 -25.7755 -97.7128)">
		<stop  offset="0" style="stop-color:#78DCF8"/>
		<stop  offset="0.9984" style="stop-color:#54B9FF"/>
	</linearGradient>
	<circle class="st10" cx="-57.6" cy="87.9" r="7.4"/>
</g>
<g>
	<path class="st11" d="M-21.5,102h-18.8c-1.4,0-2.5-1.1-2.5-2.5V61.4c0-1.4,1.1-2.5,2.5-2.5h18.7c1.4,0,2.5,1.1,2.5,2.5v38.1
		C-19,100.8-20.1,102-21.5,102z"/>
	<rect x="-42.8" y="61.2" class="st12" width="23.8" height="38.4"/>
	<g>
		<path class="st13" d="M-29.1,60.2h-5.5c-0.1,0-0.2-0.1-0.2-0.2l0,0c0-0.1,0.1-0.2,0.2-0.2h5.5c0.1,0,0.2,0.1,0.2,0.2l0,0
			C-28.9,60.1-29,60.2-29.1,60.2z"/>
		<path class="st13" d="M-27.3,60.2H-28c-0.1,0-0.2-0.1-0.2-0.2l0,0c0-0.1,0.1-0.2,0.2-0.2h0.8c0.1,0,0.2,0.1,0.2,0.2l0,0
			C-27,60.1-27.2,60.2-27.3,60.2z"/>
	</g>
	<g>
		<path class="st14" d="M-40.8,72.2c0,0-0.3-2.4,1.8-2.4s1.7,2.4,1.7,2.4"/>
		<path class="st14" d="M-24.5,72.2c0,0-0.3-2.4,1.8-2.4c2,0,1.7,2.4,1.7,2.4"/>
		<g>
			<path class="st15" d="M-34.7,76.9c0,0,5.3,0,6.2,0s3,0.1,2.5,2.1s-2.9,3.2-4.2,3.3c-1.3,0.1-4.3-0.1-5.6-2.7
				C-37.1,77-34.7,76.9-34.7,76.9z"/>
			<path class="st16" d="M-29,79h-1.6c-0.2,0-0.4-0.2-0.4-0.4v-1.7h2.4v1.7C-28.6,78.8-28.8,79-29,79z"/>
		</g>
	</g>
	<path class="st17" d="M-22.1,99.6v-5c0-4.9-4-9-9-9l0,0c-4.9,0-9,4-9,9v5H-22.1z"/>
</g>
<g>
	<defs>
		<circle id="SVGID_3_" cx="-57.6" cy="87.9" r="7.4"/>
	</defs>
	<clipPath id="SVGID_4_">
		<use xlink:href="#SVGID_3_"  style="overflow:visible;"/>
	</clipPath>
	<g class="st18">
		<g>
			<path class="st19" d="M-52.3,93.7c0,0-1.8,0.7-5.2,0.7s-5.2-0.7-5.2-0.7l0.7-8.2c0.2-2.4,2.2-4.2,4.6-4.2h0
				c2.4,0,4.4,1.8,4.6,4.2L-52.3,93.7z"/>
		</g>
		<g>
			<path class="st20" d="M-56.2,81.5c-0.4-0.1-0.9-0.2-1.3-0.2h0c-2.4,0-4.4,1.8-4.6,4.2l-0.7,8.2c0,0,0.9,0.4,2.6,0.6L-56.2,81.5z"
				/>
		</g>
		<path class="st21" d="M-52.8,94.1l0-0.2c0-0.1-0.1-0.1-0.2-0.1l-0.2-1.2c-0.1-0.4-0.3-0.8-0.7-0.9l-0.5-0.3c-0.1,0-0.2,0-0.2,0.1
			l-1.1-0.4c-0.2-0.1-0.3-0.3-0.3-0.5v-0.8l1.1-0.4c0.6-0.2,0.9-0.8,0.9-1.4v-0.2c0.4,0,0.7-0.3,0.7-0.7c0-0.4-0.3-0.7-0.7-0.7v-0.5
			c0-0.7-0.6-1.7-1.2-1.7h-4.5c-0.7,0-1.2,1.1-1.2,1.7v0.5c-0.4,0-0.7,0.3-0.7,0.7c0,0.4,0.3,0.7,0.7,0.7V88c0,0.6,0.4,1.1,0.9,1.4
			l1.1,0.4v0.8c0,0.2-0.1,0.4-0.3,0.5l-1.1,0.4c0-0.1-0.1-0.1-0.2-0.1l-0.5,0.2c-0.4,0.2-0.7,0.6-0.7,1l-0.2,1.2
			c-0.1,0-0.2,0-0.2,0.1l0,0.2c0,0.1,0,0.2,0.1,0.2l0.4,0.1v0.7c0,0.3,0.2,0.5,0.5,0.5h1h5.5h1c0.3,0,0.5-0.2,0.5-0.5v-0.7l0.4-0.1
			C-52.8,94.3-52.8,94.2-52.8,94.1z"/>
		<path class="st22" d="M-56,89.8l-3,0v0.8c0,0.2-0.1,0.3-0.2,0.4C-57.2,91.4-56,89.8-56,89.8z"/>
		<path class="st23" d="M-54,86.3v-0.5c0-0.7-0.6-1.7-1.2-1.7h-4.5c-0.7,0-1.2,1.1-1.2,1.7v0.5c-0.4,0-0.7,0.3-0.7,0.7
			c0,0.4,0.3,0.7,0.7,0.7V88c0,0.6,0.4,1.1,0.9,1.4l1.6,0.7c0.3,0.1,0.6,0.2,1,0.2l0,0c0.3,0,0.7-0.1,1-0.2l1.6-0.7
			c0.6-0.2,0.9-0.8,0.9-1.4v-0.2c0.4,0,0.7-0.3,0.7-0.7C-53.3,86.6-53.6,86.3-54,86.3z"/>
		<g>
			<path class="st24" d="M-55.8,87.3L-55.8,87.3c-0.1,0-0.2-0.1-0.2-0.2v-0.2c0-0.1,0.1-0.2,0.2-0.2l0,0c0.1,0,0.2,0.1,0.2,0.2V87
				C-55.5,87.1-55.6,87.3-55.8,87.3z"/>
		</g>
		<g>
			<g>
				<path class="st25" d="M-57.5,89c-0.4,0-0.9-0.1-1.1-0.3c-0.1-0.1-0.1-0.2-0.1-0.3c0.1-0.1,0.2-0.1,0.3-0.1
					c0.2,0.1,0.5,0.2,0.9,0.2s0.7-0.1,0.9-0.2c0.1-0.1,0.3,0,0.3,0.1c0.1,0.1,0,0.3-0.1,0.3C-56.6,88.9-57.1,89-57.5,89z"/>
			</g>
		</g>
		<g>
			<path class="st21" d="M-59.7,88.9c-0.2-0.2-0.3-0.5-0.3-0.8V87c1.4-0.1,3.2-1,4.3-1.9l-0.3-0.3c0,0-2.2,1.4-5,1.4l0,0v0
				c-0.4,0-0.7,0.3-0.7,0.7c0,0.4,0.3,0.7,0.7,0.7V88c0,0.6,0.4,1.1,0.9,1.4l1.6,0.7c0.1,0,0.2,0.1,0.2,0.1
				C-58.9,89.6-59.4,89.2-59.7,88.9z"/>
		</g>
		<g>
			<path class="st26" d="M-53,94.1l-0.2-1.5c-0.1-0.4-0.3-0.8-0.7-0.9l-0.5-0.3c-0.1,0-0.2,0-0.2,0.1c-0.3,1.3-1.5,2.2-2.9,2.2
				c-1.4,0-2.5-0.9-2.9-2.2c0-0.1-0.1-0.1-0.2-0.1l-0.5,0.2c-0.4,0.2-0.7,0.6-0.7,1l-0.2,1.5c0.7,0.2,1.8,0.6,1.8,0.6v1h5.5v-1
				L-53,94.1z"/>
		</g>
		<g>
			<path class="st27" d="M-60.2,94.6c0-0.3-0.1-0.6-0.3-0.8l-1.2-1.6c-0.1,0.1-0.1,0.2-0.1,0.4l-0.2,1.5L-60.2,94.6z"/>
		</g>
		<g>
			<path class="st28" d="M-62.2,94.1c0,0.1,0,0.2,0.1,0.2l1.9,0.5v-0.2c0-0.1,0-0.2,0-0.3l-1.7-0.5c-0.1,0-0.2,0-0.2,0.1L-62.2,94.1
				z"/>
		</g>
		<g>
			<path class="st27" d="M-54.8,94.6c0-0.3,0.1-0.6,0.3-0.8l1.2-1.6c0.1,0.1,0.1,0.2,0.1,0.4l0.2,1.5L-54.8,94.6z"/>
		</g>
		<g>
			<path class="st28" d="M-52.8,94.1c0,0.1,0,0.2-0.1,0.2l-1.9,0.5v-0.2c0-0.1,0-0.2,0-0.3l1.7-0.5c0.1,0,0.2,0,0.2,0.1L-52.8,94.1z
				"/>
		</g>
		<g>
			<path class="st24" d="M-59.2,87.3L-59.2,87.3c-0.1,0-0.2-0.1-0.2-0.2v-0.2c0-0.1,0.1-0.2,0.2-0.2l0,0c0.1,0,0.2,0.1,0.2,0.2V87
				C-59,87.1-59.1,87.3-59.2,87.3z"/>
		</g>
		<path class="st19" d="M-61.5,84.8l0,1.6c2.3,0,4.3-0.7,5.6-1.4c-0.4,0.4-1,1-1.8,1.7c0,0,2.2-0.9,3.5-2v0c0-1.6-1.3-2.9-2.9-2.9
			h-1.3C-60.2,81.9-61.5,83.2-61.5,84.8z"/>
		<path class="st20" d="M-56.3,82c-0.3-0.1-0.6-0.1-0.9-0.1h-1.3c-1.6,0-2.9,1.3-2.9,2.9l0,1.6c0.7,0,1.3-0.1,1.9-0.2
			C-57.3,84.6-56.3,82-56.3,82z"/>
	</g>
</g>
<g>
	<defs>
		<circle id="SVGID_5_" cx="-3.7" cy="69.4" r="7.4"/>
	</defs>
	<clipPath id="SVGID_6_">
		<use xlink:href="#SVGID_5_"  style="overflow:visible;"/>
	</clipPath>
	<g class="st29">
		<path class="st21" d="M1,76.1l-0.3-2.3c0-0.3-0.3-0.6-0.6-0.7L-1,72.7c-0.2-0.1-0.3,0-0.4,0.1l-0.3-0.1C-1.9,72.6-2,72.4-2,72.2
			v-0.7l1-0.4c0.5-0.2,0.8-0.7,0.8-1.3v-0.2c0.4,0,0.7-0.3,0.7-0.7c0-0.2-0.1-0.3-0.2-0.4c0.2-0.7,0.7-2.9,0.2-3.9l0.2-0.9
			c0,0-2.4,0.1-3.6,0.5l0.5-0.5c0,0-3.2,0-3.9,1.1l0,0c0,0-1.1,0-1.1,1.4c0,0.5,0.3,1.8,0.4,2.3c-0.1,0.1-0.2,0.3-0.2,0.5
			c0,0.4,0.3,0.7,0.7,0.7v0.2c0,0.5,0.3,1,0.8,1.3l1,0.4v0.7c0,0.2-0.1,0.4-0.3,0.4l-0.3,0.1c-0.1-0.1-0.3-0.1-0.4-0.1L-6.9,73
			c-0.3,0.1-0.6,0.4-0.6,0.7l-0.3,2.3c-0.1,0.4,0.3,0.8,0.7,0.8h0h7.5h0C0.8,76.9,1.1,76.5,1,76.1z"/>
		<g>
			<path class="st22" d="M-2,71.5l-2.7,0v0.7c0,0.2-0.1,0.3-0.2,0.4C-3.1,72.9-2,71.5-2,71.5z"/>
		</g>
		<g>
			<path class="st30" d="M-7,68.7c0,0-0.5-1.9-0.5-2.5c0-1.4,1.1-1.4,1.1-1.4l0,0c0.7-1.1,3.9-1.1,3.9-1.1l-0.5,0.5
				c1.2-0.4,3.6-0.5,3.6-0.5l-0.2,0.9c0.7,1.1-0.2,4.1-0.2,4.1H-7z"/>
		</g>
		<g>
			<path class="st24" d="M-2.5,63.7c0,0-3.2,0-3.9,1.1l0,0c0,0-1.1,0-1.1,1.4c0,0.6,0.5,2.5,0.5,2.5s4.7-2.1,7.7-5
				c0,0-2.4,0.1-3.6,0.5L-2.5,63.7z"/>
		</g>
		<path class="st23" d="M-0.2,68.2v-0.5c0-0.6-0.5-1.1-1.1-1.1h-4.1c-0.6,0-1.1,0.5-1.1,1.1v0.5c-0.4,0-0.7,0.3-0.7,0.7
			c0,0.4,0.3,0.7,0.7,0.7v0.2c0,0.5,0.3,1,0.8,1.3l1.5,0.6c0.3,0.1,0.6,0.2,0.9,0.2l0,0c0.3,0,0.6-0.1,0.9-0.2l1.5-0.6
			c0.5-0.2,0.8-0.7,0.8-1.3v-0.2c0.4,0,0.7-0.3,0.7-0.7C0.5,68.5,0.2,68.2-0.2,68.2z"/>
		<g>
			<path class="st24" d="M-5,69.1L-5,69.1c-0.1,0-0.2-0.1-0.2-0.2v-0.2c0-0.1,0.1-0.2,0.2-0.2l0,0c0.1,0,0.2,0.1,0.2,0.2v0.2
				C-4.8,69-4.9,69.1-5,69.1z"/>
		</g>
		<g>
			<path class="st24" d="M-1.8,69.1L-1.8,69.1C-1.9,69.1-2,69-2,68.9v-0.2c0-0.1,0.1-0.2,0.2-0.2l0,0c0.1,0,0.2,0.1,0.2,0.2v0.2
				C-1.6,69-1.7,69.1-1.8,69.1z"/>
		</g>
		<g>
			<g>
				<path class="st25" d="M-3.4,70.7c-0.4,0-0.8-0.1-1-0.3c-0.1-0.1-0.1-0.2-0.1-0.3c0.1-0.1,0.2-0.1,0.3-0.1
					c0.2,0.1,0.5,0.2,0.8,0.2s0.6-0.1,0.8-0.2c0.1-0.1,0.2,0,0.3,0.1c0.1,0.1,0,0.2-0.1,0.3C-2.6,70.6-3,70.7-3.4,70.7z"/>
			</g>
		</g>
		<g>
			<path class="st31" d="M1,76.1l-0.3-2.3c0-0.3-0.3-0.6-0.6-0.7L-1,72.7c-0.2-0.1-0.4,0-0.5,0.2c-0.4,0.6-1.1,1.1-1.9,1.1
				s-1.5-0.4-1.9-1.1c-0.1-0.2-0.3-0.2-0.5-0.2L-6.9,73c-0.3,0.1-0.6,0.4-0.6,0.7l-0.3,2.3c-0.1,0.4,0.3,0.8,0.7,0.8h7.5
				C0.8,76.9,1.1,76.5,1,76.1z"/>
		</g>
		<g>
			<path class="st32" d="M-7.4,73.3c-0.1,0.1-0.2,0.3-0.2,0.4l-0.3,2.3c-0.1,0.4,0.3,0.8,0.7,0.8h1.3v-1.5c0-0.2-0.1-0.4-0.2-0.6
				L-7.4,73.3z"/>
		</g>
		<g>
			<path class="st32" d="M0.6,73.3c0.1,0.1,0.2,0.3,0.2,0.4L1,76.1c0.1,0.4-0.3,0.8-0.7,0.8h-1.3v-1.5c0-0.2,0.1-0.4,0.2-0.6
				L0.6,73.3z"/>
		</g>
		<path class="st21" d="M-5.4,70.6c-0.2-0.2-0.3-0.5-0.3-0.7v-2.6c0.7-0.1,3-0.3,4.3-0.7h-4.1c-0.1,0-0.2,0-0.2,0v0
			c-0.5,0.1-0.9,0.6-0.9,1.1v0.5c-0.4,0-0.7,0.3-0.7,0.7c0,0.4,0.3,0.7,0.7,0.7v0.2c0,0.5,0.3,1,0.8,1.3l1.5,0.6
			c0.1,0,0.1,0.1,0.2,0.1C-4.7,71.3-5.1,70.9-5.4,70.6z"/>
	</g>
</g>
</svg>
