<?xml version="1.0" encoding="utf-8"?>
<!-- Generator: Adobe Illustrator 19.0.0, SVG Export Plug-In . SVG Version: 6.00 Build 0)  -->
<svg version="1.1" id="Capa_1" xmlns="http://www.w3.org/2000/svg" xmlns:xlink="http://www.w3.org/1999/xlink" x="0px" y="0px"
	 viewBox="10.7 84.7 63.2 63.2" style="enable-background:new 10.7 84.7 63.2 63.2;" xml:space="preserve">
<style type="text/css">
	.st0{fill:#91DC5A;}
	.st1{opacity:0.35;fill:#231F20;}
	.st2{fill:#FFFFFF;}
</style>
<path class="st0" d="M42.2,147.8c-17.4,0-31.6-14.2-31.6-31.6c0-17.4,14.2-31.6,31.6-31.6s31.6,14.2,31.6,31.6
	C73.8,133.7,59.7,147.8,42.2,147.8z"/>
<path class="st1" d="M42.3,86.7c16.3,0,29.6,13.3,29.6,29.6s-13.3,29.6-29.6,29.6s-29.6-13.3-29.6-29.6S25.9,86.7,42.3,86.7
	 M42.3,84.7c-17.4,0-31.6,14.1-31.6,31.6s14.1,31.6,31.6,31.6s31.6-14.1,31.6-31.6S59.7,84.7,42.3,84.7L42.3,84.7z"/>
<path class="st2" d="M56.4,104.6H28.1c-0.3,0-0.5,0.2-0.5,0.5v22.3c0,0.3,0.2,0.5,0.5,0.5h28.3c0.3,0,0.5-0.2,0.5-0.5v-22.3
	C56.9,104.8,56.7,104.6,56.4,104.6z M35.7,110.2c1.6,0,2.8,1.3,2.8,2.8c0,1.6-1.3,2.8-2.8,2.8s-2.8-1.3-2.8-2.8
	C32.9,111.4,34.1,110.2,35.7,110.2z M54.3,119.6c-0.2,0.2-0.5,0.2-0.7,0l-5.7-5.2l-4.6,5.1l2.4,2.4c0.2,0.2,0.2,0.5,0,0.7
	s-0.5,0.2-0.7,0l-5.2-5.2l-8.3,7.3c-0.1,0.1-0.2,0.1-0.3,0.1c-0.1,0-0.3-0.1-0.4-0.2c-0.2-0.2-0.2-0.5,0-0.7l8.6-7.6
	c0.2-0.2,0.5-0.2,0.7,0l2.4,2.4l5-5.4c0.1-0.1,0.2-0.2,0.4-0.2c0.1,0,0.3,0,0.4,0.1l6.1,5.6C54.4,119.1,54.4,119.4,54.3,119.6z"/>
</svg>
