<?xml version="1.0" encoding="utf-8"?>
<!-- Generator: Adobe Illustrator 22.1.0, SVG Export Plug-In . SVG Version: 6.00 Build 0)  -->
<svg version="1.1" id="Capa_1" xmlns="http://www.w3.org/2000/svg" xmlns:xlink="http://www.w3.org/1999/xlink" x="0px" y="0px"
	 viewBox="0 0 63.2 63.2" style="enable-background:new 0 0 63.2 63.2;" xml:space="preserve">
<style type="text/css">
	.st0{fill:#91DC5A;}
	.st1{opacity:0.35;fill:#231F20;enable-background:new    ;}
	.st2{fill:#FFFFFF;}
</style>
<path class="st0" d="M31.6,63.2C14.2,63.2,0,49,0,31.6S14.2,0,31.6,0s31.6,14.2,31.6,31.6C63.2,49.1,49.1,63.2,31.6,63.2z"/>
<path class="st1" d="M31.6,2c16.3,0,29.6,13.3,29.6,29.6S47.9,61.2,31.6,61.2S2,47.9,2,31.6S15.2,2,31.6,2 M31.6,0
	C14.2,0,0,14.1,0,31.6s14.1,31.6,31.6,31.6s31.6-14.1,31.6-31.6S49,0,31.6,0L31.6,0z"/>
<g id="surface1">
	<path class="st2" d="M28.5,18.8c-2.2,0-3.8,0.7-4.8,2c-1.2,1.5-1.4,3.9-0.6,6.9c-0.3,0.3-0.5,0.8-0.4,1.5c0.2,1.3,0.7,1.9,1.1,2.1
		c0.2,1,0.8,2.2,1.3,2.8v0.3c0,0.6,0,1.1-0.1,1.8c-0.4,0.8-1.6,1.3-3,1.9c-2.3,0.9-5.3,2.1-5.5,5.7l0,0.6h24.1l0-0.6
		c0-0.3-0.1-0.5-0.1-0.7c0-0.1,0-0.1,0-0.2c0-0.2-0.1-0.3-0.1-0.5c0,0,0-0.1-0.1-0.1c-0.1-0.2-0.1-0.3-0.2-0.5c0,0,0,0,0-0.1
		c-0.1-0.2-0.2-0.3-0.3-0.5c-1.1-1.7-3-2.4-4.6-3.1c-1.4-0.6-2.6-1-3-1.9c-0.1-0.7,0-1.2,0-1.8V34c0.5-0.6,1.1-1.7,1.3-2.8
		c0.4-0.2,0.9-0.8,1.1-2.1c0.1-0.7-0.1-1.2-0.4-1.5c0.3-1.2,1.1-4.3-0.2-6.3c-0.3-0.4-0.6-0.8-1-1c-0.2-0.1-0.4-0.2-0.6-0.3
		c-0.2-0.1-0.4-0.2-0.7-0.2C31.1,19.2,30,18.8,28.5,18.8z M36.3,19.4c-0.9,0-1.6,0.2-2.2,0.4c0.3,0.3,0.6,0.6,0.9,1
		c1.3,2.1,0.9,4.9,0.4,6.7c0.3,0.5,0.3,1.2,0.3,1.8c-0.2,1.4-0.7,2.2-1.2,2.6c-0.2,0.9-0.7,1.8-1.2,2.5c0,0.5,0,0.8,0,1.3
		c0.3,0.4,1.4,0.8,2.2,1.1c1.8,0.7,4.4,1.8,5.6,4.2h5.5l0-0.6c-0.2-3.1-2.7-4.1-4.7-4.9c-1.1-0.4-2.2-0.9-2.5-1.5c0-0.6,0-1,0-1.5
		v-0.2c0.5-0.5,0.9-1.5,1.1-2.3c0.4-0.2,0.8-0.7,0.9-1.8c0.1-0.6-0.1-1-0.3-1.3c0.3-1,0.9-3.6-0.2-5.3c-0.4-0.7-1.1-1.2-2-1.3
		C38.5,19.8,37.6,19.4,36.3,19.4z"/>
</g>
</svg>
