<?xml version="1.0" encoding="utf-8"?>
<!-- Generator: Adobe Illustrator 19.0.0, SVG Export Plug-In . SVG Version: 6.00 Build 0)  -->
<svg version="1.1" id="Capa_1" xmlns="http://www.w3.org/2000/svg" xmlns:xlink="http://www.w3.org/1999/xlink" x="0px" y="0px"
	 viewBox="10.7 84.7 63.2 63.2" style="enable-background:new 10.7 84.7 63.2 63.2;" xml:space="preserve">
<style type="text/css">
	.st0{fill:#933EC5;}
	.st1{opacity:0.35;fill:#231F20;}
	.st2{opacity:0.3;clip-path:url(#SVGID_2_);fill:#231F20;}
	.st3{clip-path:url(#SVGID_2_);fill:#FFFFFF;}
</style>
<path class="st0" d="M42.2,147.8c-17.4,0-31.6-14.2-31.6-31.6c0-17.4,14.2-31.6,31.6-31.6s31.6,14.2,31.6,31.6
	C73.8,133.7,59.7,147.8,42.2,147.8z"/>
<path class="st1" d="M42.3,86.7c16.3,0,29.6,13.3,29.6,29.6s-13.3,29.6-29.6,29.6s-29.6-13.3-29.6-29.6S25.9,86.7,42.3,86.7
	 M42.3,84.7c-17.4,0-31.6,14.1-31.6,31.6s14.1,31.6,31.6,31.6s31.6-14.1,31.6-31.6S59.7,84.7,42.3,84.7L42.3,84.7z"/>
<g>
	<g>
		<defs>
			<rect id="SVGID_1_" x="26.7" y="100.4" width="31.1" height="31.8"/>
		</defs>
		<clipPath id="SVGID_2_">
			<use xlink:href="#SVGID_1_"  style="overflow:visible;"/>
		</clipPath>
		<path class="st2" d="M57.6,127.2c0,2.4-6.9,4.3-15.4,4.3c-8.5,0-15.4-1.9-15.4-4.3c0-2.4,6.9-4.3,15.4-4.3
			C50.6,123,57.6,124.9,57.6,127.2L57.6,127.2z M57.6,127.2"/>
		<path class="st3" d="M48.9,103.5c-3.8-3.8-9.9-3.8-13.7,0c-3.4,3.4-3.8,9.8-0.9,13.7l7.7,11.2l7.7-11.2
			C52.7,113.3,52.3,106.9,48.9,103.5L48.9,103.5z M42.1,113.4c-1.8,0-3.2-1.4-3.2-3.2c0-1.8,1.4-3.2,3.2-3.2c1.8,0,3.2,1.4,3.2,3.2
			C45.3,112,43.9,113.4,42.1,113.4L42.1,113.4z M42.1,113.4"/>
	</g>
</g>
</svg>
