<?xml version="1.0" encoding="utf-8"?>
<!-- Generator: Adobe Illustrator 19.0.0, SVG Export Plug-In . SVG Version: 6.00 Build 0)  -->
<svg version="1.1" id="Layer_1" xmlns="http://www.w3.org/2000/svg" xmlns:xlink="http://www.w3.org/1999/xlink" x="0px" y="0px"
	 viewBox="25 0 250 150" style="enable-background:new 25 0 250 150;" xml:space="preserve">
<style type="text/css">
	.st0{fill:#28B446;}
	.st1{fill:#CCCCCC;}
	.st2{fill:#518EF8;}
	.st3{fill:#F2F2F2;}
	.st4{fill:#FFD837;}
	.st5{fill:#F14336;}
	.st6{fill:#7E2D25;}
	.st7{fill:#FFFFFF;}
</style>
<g>
	<polygon class="st0" points="182.3,-0.1 275,-0.1 275,59.2 194.3,59.2 172,13.5 	"/>
	<path class="st1" d="M275,59.4v72.4l-37.9-4.2l-16.7-12l-70.4-47l59.8-25.5c0,0,46.2-41.7,65.2-30.4V59.4z"/>
	<path class="st2" d="M130.4,53.9l124.2,96c-0.7,0-1.5,0.1-2.2,0.1H49.3L130.4,53.9z"/>
	<path class="st0" d="M209.8,43.1L25,136.5v-123C25,6,35.1-0.1,47.6-0.1h134.8c-5.8,6,15.7,9.8,15.7,17.2
		C198,24.6,203.9,37.1,209.8,43.1z"/>
	<path class="st3" d="M275,131.8v4.7c0,7-8.9,12.8-20.4,13.5l-104-61.6L175.8,73l58.1,34.4l3.2,1.9L275,131.8z"/>
	<path class="st4" d="M203.4,56.3L175.8,73l-25.2,15.3L49.3,150.1h-1.7c-12.5,0-22.6-6.1-22.6-13.6l157.4-95.8
		c2.9,3,23.2,0,27.3,2.4l7.2,5.6"/>
	<polygon class="st4" points="25,136.5 25,150 49.3,150.1 36.1,141.4 	"/>
	<polygon class="st0" points="25,13.5 25,-0.1 49.3,-0.1 36.1,8.6 	"/>
	<polygon class="st4" points="182.4,40.7 247,0 275,-0.1 275,15.3 198.6,59.2 	"/>
	<g>
		<path class="st5" d="M204.9,61.5c3.4-5.8,9.6-9.6,16.8-9.6c10.7,0,19.4,8.7,19.4,19.4c0,2.7-0.5,5.2-1.5,7.6
			c-1,2.3-2.4,4.4-4.2,6.2c-1.5,1.6-2.8,3.2-4,4.9c-7.8,11-9.7,23.7-9.7,23.7s-2.1-13.7-10.7-25c-0.9-1.2-1.9-2.4-3-3.5l0,0
			c-1.2-1.2-2.2-2.5-3.1-4c-1.7-2.9-2.6-6.2-2.6-9.8C202.3,67.7,203.2,64.4,204.9,61.5z"/>
		<path class="st6" d="M221.6,60.9c5.7,0,10.3,4.6,10.3,10.3c0,5.7-4.6,10.3-10.3,10.3s-10.3-4.6-10.3-10.3S215.9,60.9,221.6,60.9z"
			/>
	</g>
	<path class="st7" d="M56.3,49.9c-10.3,0-18.6-8.3-18.6-18.6S46,12.7,56.3,12.7c5,0,9.6,1.9,13.2,5.5l-4.3,4.3
		c-2.4-2.4-5.5-3.7-8.8-3.7c-6.9,0-12.5,5.6-12.5,12.5s5.6,12.5,12.5,12.5c5.8,0,10.8-4,12.1-9.5H56.3v-6.1h18.6v3
		C74.9,41.6,66.6,49.9,56.3,49.9z"/>
	<polygon class="st3" points="254.6,150 275,150 275,131.8 	"/>
</g>
</svg>
