<?xml version="1.0" encoding="utf-8"?>
<!-- Generator: Adobe Illustrator 22.1.0, SVG Export Plug-In . SVG Version: 6.00 Build 0)  -->
<svg version="1.1" id="Capa_1" xmlns="http://www.w3.org/2000/svg" xmlns:xlink="http://www.w3.org/1999/xlink" x="0px" y="0px"
	 viewBox="0 0 59 59" style="enable-background:new 0 0 59 59;" xml:space="preserve">
<style type="text/css">
	.st0{fill:#7A6CE5;}
	.st1{fill:#483AAD;}
	.st2{fill:#D0E8F9;}
	.st3{fill:#EAF6FD;}
	.st4{fill:#B1D3EF;}
</style>
<g>
	<g>
		<path class="st0" d="M53.6,44.3L44,39.5c-1.2-0.6-2-1.9-2-3.3v-3.7c0.3-0.3,0.6-0.7,0.9-1.2c1.3-1.8,2.3-3.9,3-6
			c1.2-0.4,2.1-1.5,2.1-2.9v-4c0-0.9-0.4-1.7-1-2.2v-5.8c0,0,1.2-9-11-9s-11,9-11,9v5.8c-0.6,0.5-1,1.3-1,2.2v4c0,1.1,0.6,2,1.4,2.5
			c1,4.4,3.6,7.5,3.6,7.5v3.7c0,1.3-0.7,2.6-1.9,3.2l-8.9,4.9c-2.6,1.4-4.2,4.1-4.2,7v3.2h44v-3C58,48.4,56.3,45.7,53.6,44.3z"/>
		<path class="st1" d="M18.2,44.2l5.9-3.2c0,0,0,0,0.1,0l2.9-1.6c1.2-0.6,1.9-1.9,1.9-3.2v-3.7c0,0-1.1-1.3-2.1-3.3l0,0l0,0
			c-0.1-0.3-0.3-0.6-0.4-0.8c0,0,0-0.1-0.1-0.1c-0.1-0.3-0.3-0.6-0.4-0.9c0,0,0,0,0-0.1c-0.1-0.3-0.2-0.6-0.3-0.9
			c0-0.1-0.1-0.2-0.1-0.3c-0.1-0.3-0.2-0.7-0.3-1c-0.8-0.5-1.4-1.5-1.4-2.5v-4c0-0.9,0.4-1.7,1-2.2v-5.6c-1.4-1.1-3.6-2.1-7-2.1
			c-9.6,0-10,8-10,8v5c-0.5,0.5-1,1.2-1,1.9v3.5c0,0.9,0.5,1.7,1.2,2.2c0.9,3.8,3.8,6.5,3.8,6.5V39c0,1.2-0.6,2.2-1.6,2.8L3.6,46
			C1.4,47.2,0,49.5,0,52.1v2.8h14v-3.2C14,48.3,15.6,45.6,18.2,44.2z"/>
	</g>
	<g>
		<circle class="st2" cx="44.8" cy="42.3" r="9.8"/>
		<path class="st3" d="M48.3,33.2L35.6,45.9c0.7,1.8,1.9,3.4,3.5,4.5l13.6-13.6C51.7,35.1,50.1,33.9,48.3,33.2z"/>
		<path class="st4" d="M58.7,55.8l-6-6.2c1.7-1.9,2.8-4.5,2.8-7.3c0-6-4.8-10.8-10.8-10.8S34,36.4,34,42.3s4.8,10.8,10.8,10.8
			c2.4,0,4.7-0.8,6.5-2.2l6,6.3c0.2,0.2,0.5,0.3,0.7,0.3c0.2,0,0.5-0.1,0.7-0.3C59.1,56.8,59.1,56.2,58.7,55.8z M36,42.3
			c0-4.8,3.9-8.8,8.8-8.8s8.8,3.9,8.8,8.8s-3.9,8.8-8.8,8.8S36,47.2,36,42.3z"/>
	</g>
</g>
</svg>
