<?xml version="1.0" encoding="utf-8"?>
<!-- Generator: Adobe Illustrator 19.0.0, SVG Export Plug-In . SVG Version: 6.00 Build 0)  -->
<svg version="1.1" id="Layer_1" xmlns="http://www.w3.org/2000/svg" xmlns:xlink="http://www.w3.org/1999/xlink" x="0px" y="0px"
	 viewBox="0 0 179 91.7" style="enable-background:new 0 0 179 91.7;" xml:space="preserve">
<style type="text/css">
	.st0{fill:#FFFFFF;}
	.st1{fill:#010101;}
</style>
<g id="XMLID_3_">
	<g id="XMLID_12_">
		<path id="XMLID_148_" class="st0" d="M15.2,0c0.2,0.5,0.4,1.2,0.7,2.2c0.3,1,0.5,2.1,0.9,3.4s0.6,2.7,1,4.2c0.3,1.5,0.7,3,1,4.6
			c0.3,1.6,0.7,3.1,1,4.6s0.6,2.9,0.9,4.2c0.3,1.3,0.5,2.5,0.8,3.5c0.2,1,0.4,1.8,0.5,2.3c0.3-0.7,0.6-1.6,1-2.7
			c0.4-1.1,0.8-2.2,1.2-3.5s0.9-2.6,1.4-4s1-2.9,1.5-4.3c0.5-1.5,1-2.9,1.5-4.3s1-2.8,1.5-4s0.9-2.4,1.3-3.5c0.4-1.1,0.8-2,1.1-2.7
			l1.6,0.2C34,1,33.7,2,33.5,3.1S33,5.3,32.8,6.6s-0.4,2.6-0.6,4s-0.4,2.8-0.5,4.2c-0.1,1.4-0.3,2.8-0.3,4.2c-0.1,1.4-0.1,2.7-0.1,4
			c0,2.5,0.2,4.3,0.5,5.6s0.9,1.9,1.6,1.9c0.3,0,0.6-0.1,0.9-0.4c0.3-0.3,0.6-0.7,1-1.2c0.3-0.5,0.7-1.2,1.1-1.9
			c0.4-0.8,0.8-1.7,1.4-2.7l0.2-0.4l0.8,0.6L38.6,25c-0.7,1.3-1.2,2.4-1.7,3.4c-0.5,1-1,1.8-1.5,2.4c-0.5,0.7-1,1.1-1.4,1.5
			c-0.5,0.3-1,0.5-1.6,0.5c-0.8,0-1.4-0.2-2-0.6c-0.5-0.4-0.9-0.9-1.3-1.6c-0.3-0.7-0.5-1.6-0.7-2.6s-0.2-2.2-0.2-3.4
			c0-1.4,0.1-2.9,0.2-4.4c0.1-1.5,0.3-3,0.5-4.5c0.2-1.4,0.4-2.8,0.6-4s0.4-2.2,0.6-3.1l-8.8,25.2l-1.6-0.4c0-0.3-0.1-0.9-0.3-1.7
			c-0.2-0.9-0.4-2-0.7-3.2s-0.6-2.7-0.9-4.2c-0.3-1.5-0.7-3.1-1.1-4.6C16,15.9,15.1,11.9,14,7.4c0,0.9,0.1,1.9,0.1,2.8
			c0,0.8,0.1,1.7,0.1,2.6c0,0.9,0,1.8,0,2.6c0,2.4-0.1,4.4-0.4,6.3c-0.3,1.8-0.6,3.4-1.1,4.8c-0.5,1.3-1,2.5-1.6,3.4
			c-0.6,0.9-1.3,1.7-2,2.2c-0.7,0.6-1.4,1-2.1,1.2S5.7,33.7,5,33.7s-1.3-0.1-1.9-0.3s-1.1-0.5-1.6-1S0.7,31.5,0.4,31
			C0.1,30.4,0,29.8,0,29.2c0-0.8,0.1-1.5,0.4-2.2s0.6-1.4,1.1-2s1-1.2,1.6-1.7c0.6-0.5,1.3-1,2-1.5l0.6,0.6c-0.5,0.4-1,0.7-1.4,1.2
			C3.8,24,3.4,24.5,3.1,25c-0.3,0.5-0.5,1-0.7,1.6c-0.2,0.5-0.3,1.1-0.3,1.6c0,0.5,0.1,1,0.2,1.4c0.2,0.4,0.4,0.8,0.7,1.2
			c0.3,0.3,0.7,0.6,1.1,0.8c0.4,0.2,0.9,0.3,1.4,0.3c0.5,0,1.1-0.1,1.7-0.3s1.2-0.6,1.7-1.1c0.6-0.5,1.1-1.2,1.6-2.1
			c0.5-0.9,0.9-1.9,1.3-3.2s0.7-2.8,0.9-4.5c0.2-1.7,0.3-3.7,0.3-5.9c0-0.6,0-1.4,0-2.2c0-0.9-0.1-1.8-0.1-2.7s-0.1-1.9-0.2-2.8
			s-0.2-1.8-0.2-2.6c-0.1-0.8-0.2-1.5-0.3-2.1S12.1,1.1,12,0.8L15.2,0z"/>
		<path id="XMLID_145_" class="st0" d="M54.4,24.6L54.1,25c-0.4,0.9-1,1.6-1.8,2.1c-0.7,0.5-1.5,0.9-2.4,1c-0.2,0.7-0.5,1.3-0.9,1.8
			s-0.8,1.1-1.3,1.5c-0.5,0.4-1,0.7-1.6,1c-0.6,0.2-1.2,0.4-1.9,0.4c-1,0-1.9-0.2-2.7-0.6s-1.5-1-2-1.7c-0.6-0.7-1-1.6-1.3-2.5
			s-0.4-2-0.4-3.1c0-1,0.1-1.8,0.3-2.6s0.5-1.5,0.8-2.1c0.3-0.6,0.7-1.2,1.1-1.6c0.4-0.5,0.8-0.8,1.2-1.1c0.4-0.3,0.8-0.5,1.1-0.7
			s0.6-0.2,0.8-0.2l0.3,0.7c-0.5,0.4-1,0.9-1.4,1.6c-0.4,0.6-0.7,1.4-1,2.4s-0.4,2.2-0.4,3.7c0,0.9,0.1,1.8,0.3,2.6
			c0.2,0.8,0.4,1.6,0.7,2.2c0.3,0.7,0.7,1.2,1.2,1.6c0.5,0.4,1,0.6,1.6,0.6c0.8,0,1.5-0.3,2-1c0.5-0.7,0.9-1.6,1.2-2.7
			c-0.7-0.1-1.3-0.4-1.9-0.8c-0.6-0.4-1.2-0.9-1.6-1.5s-0.8-1.2-1.1-2c-0.3-0.8-0.4-1.6-0.4-2.5c0-0.7,0.1-1.4,0.3-1.9
			c0.2-0.6,0.4-1,0.8-1.4s0.7-0.7,1.1-0.8s0.8-0.3,1.3-0.3c0.5,0,1.1,0.2,1.6,0.5c0.6,0.3,1.1,0.8,1.5,1.4c0.5,0.6,0.8,1.4,1.1,2.3
			c0.3,0.9,0.4,2,0.4,3.2c0,0.5,0,0.9-0.1,1.3c-0.1,0.4-0.1,0.9-0.2,1.3c0.6-0.2,1.2-0.5,1.7-0.9c0.5-0.4,0.9-0.9,1.3-1.6l0.2-0.4
			L54.4,24.6z M43.8,21.2c0,0.8,0.1,1.5,0.3,2.1s0.5,1.2,0.9,1.7c0.4,0.5,0.8,0.9,1.3,1.2c0.5,0.3,1,0.6,1.5,0.7
			c0.1-0.4,0.1-0.7,0.1-1.1s0-0.8,0-1.2c0-0.9-0.1-1.8-0.2-2.5c-0.1-0.7-0.3-1.4-0.6-1.9s-0.5-0.9-0.8-1.2s-0.6-0.4-1-0.4
			c-0.4,0-0.8,0.2-1.1,0.7S43.8,20.3,43.8,21.2z"/>
		<path id="XMLID_142_" class="st0" d="M53.4,24.4l0.2-0.4c0.2-0.4,0.4-0.8,0.5-1.2c0.2-0.4,0.3-0.8,0.4-1.2s0.2-0.7,0.3-1
			c0.1-0.3,0.1-0.5,0.1-0.7c-0.3,0-0.7-0.1-1-0.3s-0.6-0.3-0.8-0.5s-0.4-0.5-0.6-0.8s-0.2-0.6-0.2-1c0-0.3,0.1-0.6,0.2-0.8
			c0.1-0.2,0.2-0.4,0.4-0.6s0.4-0.3,0.6-0.4s0.4-0.1,0.7-0.1c0.3,0,0.6,0.1,0.8,0.2s0.4,0.3,0.6,0.5s0.3,0.5,0.4,0.7
			s0.1,0.6,0.1,0.9c0.4,0,0.8-0.1,1.2-0.2c0.4-0.1,0.8-0.2,1.3-0.3s0.9-0.2,1.3-0.3c0.4-0.1,0.8-0.2,1.2-0.2c0.3,0,0.5,0.1,0.7,0.2
			c0.2,0.1,0.3,0.3,0.3,0.6c0,0.2-0.1,0.6-0.2,1c-0.1,0.5-0.3,1-0.5,1.7c-0.2,0.6-0.4,1.3-0.6,2.1s-0.4,1.5-0.6,2.3
			c-0.2,0.8-0.3,1.5-0.5,2.2c-0.1,0.7-0.2,1.4-0.2,1.9c0,0.7,0.1,1.2,0.2,1.4s0.4,0.4,0.8,0.4c0.2,0,0.4-0.1,0.6-0.2
			s0.6-0.4,0.9-0.9c0.4-0.4,0.8-1.1,1.3-1.9c0.5-0.8,1.1-1.9,1.7-3.2l0.2-0.4l0.8,0.6L66,25c-0.8,1.6-1.5,2.8-2.1,3.8
			c-0.6,1-1.2,1.8-1.7,2.4c-0.5,0.6-1,1-1.5,1.2c-0.5,0.2-0.9,0.3-1.4,0.3c-0.8,0-1.4-0.3-1.9-0.9c-0.5-0.6-0.7-1.5-0.7-2.7
			c0-0.7,0.1-1.4,0.3-2.1c0.2-0.7,0.4-1.4,0.7-2.1s0.6-1.4,0.9-2.1c0.3-0.7,0.7-1.3,1-2c0.3-0.6,0.6-1.2,0.8-1.7
			c0.2-0.5,0.4-1,0.5-1.4l-0.1-0.1c-0.2,0-0.5,0.1-0.8,0.3s-0.7,0.5-1.2,0.8c-0.4,0.3-0.9,0.5-1.4,0.8c-0.5,0.2-1,0.4-1.5,0.4
			c0,0.2-0.1,0.4-0.2,0.8c-0.1,0.4-0.2,0.7-0.3,1.2c-0.1,0.4-0.3,0.9-0.5,1.3c-0.2,0.5-0.4,0.9-0.6,1.3L54.2,25L53.4,24.4z
			 M54.3,16.5c-0.1,0-0.2,0-0.3,0.1s-0.1,0.2-0.1,0.3c0,0.2,0,0.3,0.1,0.4s0.2,0.2,0.3,0.3s0.2,0.1,0.4,0.2c0.1,0,0.2,0,0.3,0
			c0-0.4-0.1-0.7-0.2-0.9S54.5,16.5,54.3,16.5z"/>
		<path id="XMLID_139_" class="st0" d="M71.1,30.5c0.5,0,0.9-0.1,1.4-0.4c0.5-0.2,1-0.6,1.4-1.1s1-1.1,1.5-1.9
			c0.5-0.8,1.1-1.7,1.6-2.8l0.2-0.4l0.8,0.6L77.9,25c-0.7,1.4-1.4,2.6-2.1,3.6c-0.7,1-1.4,1.8-2.1,2.4c-0.7,0.6-1.3,1.1-2,1.4
			c-0.7,0.3-1.3,0.4-1.9,0.4c-0.8,0-1.6-0.2-2.3-0.5s-1.2-0.8-1.7-1.4c-0.5-0.6-0.8-1.3-1-2.1c-0.2-0.8-0.4-1.6-0.4-2.5
			c0-1.4,0.2-2.7,0.6-3.8s0.9-2.1,1.5-3s1.4-1.5,2.2-1.9s1.7-0.7,2.6-0.7c0.9,0,1.6,0.2,2.1,0.7c0.5,0.5,0.7,1,0.7,1.7
			c0,0.7-0.2,1.3-0.6,1.9c-0.4,0.6-0.9,1.1-1.5,1.7s-1.4,1.1-2.2,1.6c-0.8,0.5-1.7,1.1-2.7,1.7c0.1,0.7,0.2,1.3,0.5,1.8
			c0.2,0.6,0.5,1,0.8,1.4c0.3,0.4,0.7,0.7,1.2,0.9C70.1,30.4,70.6,30.5,71.1,30.5z M71.7,19.7c0-0.5-0.1-0.9-0.4-1.2
			c-0.3-0.3-0.6-0.4-1-0.4c-0.3,0-0.7,0.1-1.1,0.4c-0.4,0.2-0.7,0.6-1,1.2s-0.6,1.2-0.8,2c-0.2,0.8-0.3,1.8-0.3,3V25
			c0.4-0.2,0.9-0.5,1.5-0.9c0.5-0.4,1-0.8,1.5-1.3s0.9-1,1.2-1.5C71.6,20.8,71.7,20.3,71.7,19.7z"/>
		<path id="XMLID_136_" class="st0" d="M102.8,24.6l-0.2,0.4c-0.4,0.9-1,1.6-1.8,2.1s-1.5,0.9-2.4,1c-0.2,0.7-0.5,1.3-0.9,1.8
			s-0.8,1.1-1.3,1.5s-1,0.7-1.6,1s-1.2,0.4-1.9,0.4c-1,0-1.9-0.2-2.7-0.6s-1.5-1-2-1.7c-0.6-0.7-1-1.6-1.3-2.5s-0.4-2-0.4-3.1
			c0-1,0.1-1.8,0.3-2.6s0.5-1.5,0.8-2.1c0.3-0.6,0.7-1.2,1.1-1.6c0.4-0.5,0.8-0.8,1.2-1.1c0.4-0.3,0.8-0.5,1.1-0.7s0.6-0.2,0.8-0.2
			l0.3,0.7c-0.5,0.4-1,0.9-1.4,1.6c-0.4,0.6-0.7,1.4-1,2.4s-0.4,2.2-0.4,3.7c0,0.9,0.1,1.8,0.3,2.6c0.2,0.8,0.4,1.6,0.7,2.2
			c0.3,0.7,0.7,1.2,1.2,1.6s1,0.6,1.6,0.6c0.8,0,1.5-0.3,2-1s0.9-1.6,1.2-2.7c-0.7-0.1-1.3-0.4-1.9-0.8s-1.2-0.9-1.6-1.5
			s-0.8-1.2-1.1-2S91,22.2,91,21.3c0-0.7,0.1-1.4,0.3-1.9c0.2-0.6,0.4-1,0.8-1.4s0.7-0.7,1.1-0.8s0.8-0.3,1.3-0.3
			c0.5,0,1.1,0.2,1.6,0.5s1.1,0.8,1.5,1.4s0.8,1.4,1.1,2.3s0.4,2,0.4,3.2c0,0.5,0,0.9-0.1,1.3s-0.1,0.9-0.2,1.3
			c0.6-0.2,1.2-0.5,1.7-0.9s0.9-0.9,1.3-1.6l0.2-0.4L102.8,24.6z M92.3,21.2c0,0.8,0.1,1.5,0.3,2.1s0.5,1.2,0.9,1.7s0.8,0.9,1.3,1.2
			s1,0.6,1.5,0.7c0.1-0.4,0.1-0.7,0.1-1.1s0-0.8,0-1.2c0-0.9-0.1-1.8-0.2-2.5s-0.3-1.4-0.6-1.9s-0.5-0.9-0.8-1.2s-0.6-0.4-1-0.4
			c-0.4,0-0.8,0.2-1.1,0.7S92.3,20.3,92.3,21.2z"/>
		<path id="XMLID_30_" class="st0" d="M104.6,20.4c0.2-0.5,0.5-0.9,0.8-1.4s0.7-0.8,1.1-1.2s0.9-0.6,1.3-0.8s1-0.3,1.6-0.3
			c0.8,0,1.5,0.2,2.1,0.6s1.1,0.9,1.5,1.5s0.7,1.3,0.9,2.1s0.3,1.7,0.3,2.5c0,1.3-0.1,2.5-0.4,3.6s-0.6,2-1.1,2.8
			c0.7-0.5,1.4-1.2,2.1-2.1s1.4-2,2.1-3.4l0.2-0.4l0.8,0.6l-0.2,0.4c-0.6,1.2-1.3,2.3-2,3.2s-1.5,1.8-2.3,2.5s-1.6,1.2-2.5,1.6
			s-1.8,0.5-2.7,0.5c-0.8,0-1.6-0.2-2.2-0.5s-1.2-0.8-1.6-1.3v9.2c0,0.5,0,0.9-0.1,1.2s-0.2,0.6-0.4,0.8s-0.4,0.3-0.7,0.4
			s-0.6,0.1-1,0.1c-0.3,0-0.5,0-0.6-0.1s-0.2-0.3-0.2-0.5c0-0.1,0-0.3,0-0.5c0-0.2,0.1-0.6,0.1-1.1c0-0.5,0.1-1.1,0.1-1.9
			c0-0.8,0-1.8,0-3V25c0-1.4,0-2.6,0-3.5c0-0.9,0-1.5,0-2c0-0.5,0-0.8,0-1c0-0.2,0-0.4,0-0.5c0-0.1,0.1-0.3,0.2-0.4s0.3-0.2,0.5-0.4
			s0.4-0.2,0.7-0.3s0.5-0.1,0.7-0.1s0.4,0.1,0.5,0.2s0.2,0.3,0.2,0.6V20.4z M108.4,18.5c-0.5,0-1.1,0.2-1.5,0.6s-0.9,0.9-1.2,1.5
			s-0.6,1.2-0.8,2s-0.3,1.4-0.3,2.1v2.2c0,0.7,0.1,1.3,0.3,1.9s0.4,1.1,0.8,1.5s0.7,0.7,1.1,0.9s0.9,0.3,1.3,0.3
			c1.1,0,1.9-0.6,2.5-1.7s0.8-2.9,0.8-5.4c0-0.8-0.1-1.6-0.2-2.3s-0.3-1.3-0.5-1.9s-0.6-0.9-1-1.2S108.9,18.5,108.4,18.5z"/>
		<path id="XMLID_28_" class="st0" d="M117.1,26.3c0-1.4,0.1-2.8,0.2-4.2s0.2-2.8,0.4-4.2h-1.8l0.2-1.2h1.7c0.2-1.3,0.4-2.7,0.6-4
			s0.4-2.7,0.5-4h2c0,0.3-0.1,0.7-0.1,1.2s-0.1,1.2-0.2,1.9s-0.1,1.5-0.2,2.3s-0.1,1.7-0.2,2.6h3.8l-0.2,1.2h-3.7
			c-0.1,0.7-0.1,1.5-0.1,2.2s-0.1,1.4-0.1,2S120,23.4,120,24s0,1,0,1.4c0,1,0,1.8,0.1,2.5s0.1,1.2,0.3,1.6s0.3,0.7,0.5,0.9
			s0.4,0.3,0.7,0.3c0.3,0,0.7-0.2,1.1-0.5s0.8-0.8,1.2-1.3s0.9-1.2,1.3-2s0.9-1.5,1.3-2.4l0.2-0.4l0.8,0.6l-0.2,0.4
			c-0.6,1.2-1.2,2.3-1.8,3.3s-1.2,1.8-1.7,2.5s-1.1,1.2-1.7,1.5s-1.1,0.5-1.6,0.5s-1-0.1-1.4-0.4s-0.7-0.6-1-1.1s-0.5-1.2-0.6-2
			S117.1,27.5,117.1,26.3z"/>
		<path id="XMLID_25_" class="st0" d="M127.5,24.2l-0.2,0.4l-0.2,0.4l-0.8-0.6l0.2-0.4c0.3-0.7,0.6-1.3,0.8-2s0.4-1.3,0.5-1.9
			c0.1-0.6,0.3-1.1,0.3-1.5s0.2-0.8,0.3-1c0.1-0.2,0.2-0.3,0.3-0.4s0.3-0.2,0.5-0.2s0.3-0.1,0.5-0.1s0.3,0,0.3,0
			c0.3,0,0.5,0.1,0.6,0.2s0.1,0.3,0.1,0.6c0,0.1,0,0.5-0.1,1.1s-0.1,1.3-0.2,2.1s-0.1,1.8-0.2,2.9s-0.1,2.2-0.1,3.3
			c0,0.8,0,1.5,0.1,1.9s0.2,0.8,0.3,1.1s0.3,0.4,0.4,0.4s0.3,0.1,0.5,0.1c0.2,0,0.4-0.1,0.7-0.3s0.6-0.5,0.9-1s0.8-1.1,1.2-1.9
			s1-1.8,1.6-3l0.2-0.4l0.8,0.6l-0.2,0.4c-0.5,1-1,1.9-1.5,2.9s-1,1.8-1.5,2.5s-1,1.3-1.5,1.8s-1,0.7-1.5,0.7c-0.5,0-1-0.1-1.4-0.3
			s-0.7-0.6-1-1.1s-0.4-1.1-0.6-2c-0.1-0.8-0.2-1.8-0.2-3c0-0.3,0-0.7,0-1.1s0-0.8,0-1.2H127.5z M131.5,12.8c0,0.5-0.2,0.8-0.5,1.1
			s-0.7,0.5-1.1,0.5c-0.4,0-0.8-0.2-1.1-0.5s-0.5-0.7-0.5-1.1c0-0.4,0.2-0.8,0.5-1.1s0.7-0.5,1.1-0.5c0.5,0,0.8,0.2,1.1,0.5
			S131.5,12.3,131.5,12.8z"/>
		<path id="XMLID_22_" class="st0" d="M152.6,24.6l-0.2,0.4c-0.4,0.9-1,1.6-1.8,2.1s-1.5,0.9-2.4,1c-0.2,0.7-0.5,1.3-0.9,1.8
			s-0.8,1.1-1.3,1.5s-1,0.7-1.6,1s-1.2,0.4-1.9,0.4c-1,0-1.9-0.2-2.7-0.6s-1.5-1-2-1.7s-1-1.6-1.3-2.5s-0.4-2-0.4-3.1
			c0-1,0.1-1.8,0.3-2.6s0.5-1.5,0.8-2.1s0.7-1.2,1.1-1.6s0.8-0.8,1.2-1.1s0.8-0.5,1.1-0.7s0.6-0.2,0.8-0.2l0.3,0.7
			c-0.5,0.4-1,0.9-1.4,1.6c-0.4,0.6-0.7,1.4-1,2.4s-0.4,2.2-0.4,3.7c0,0.9,0.1,1.8,0.3,2.6s0.4,1.6,0.7,2.2s0.7,1.2,1.2,1.6
			s1,0.6,1.6,0.6c0.8,0,1.5-0.3,2-1s0.9-1.6,1.2-2.7c-0.7-0.1-1.3-0.4-1.9-0.8s-1.2-0.9-1.6-1.5s-0.8-1.2-1.1-2s-0.4-1.6-0.4-2.5
			c0-0.7,0.1-1.4,0.3-1.9s0.4-1,0.8-1.4s0.7-0.7,1.1-0.8s0.8-0.3,1.3-0.3c0.5,0,1.1,0.2,1.6,0.5s1.1,0.8,1.5,1.4s0.8,1.4,1.1,2.3
			s0.4,2,0.4,3.2c0,0.5,0,0.9-0.1,1.3s-0.1,0.9-0.2,1.3c0.6-0.2,1.2-0.5,1.7-0.9s0.9-0.9,1.3-1.6l0.2-0.4L152.6,24.6z M142,21.2
			c0,0.8,0.1,1.5,0.3,2.1s0.5,1.2,0.9,1.7s0.8,0.9,1.3,1.2s1,0.6,1.5,0.7c0.1-0.4,0.1-0.7,0.1-1.1s0-0.8,0-1.2
			c0-0.9-0.1-1.8-0.2-2.5s-0.3-1.4-0.6-1.9s-0.5-0.9-0.8-1.2s-0.6-0.4-1-0.4c-0.4,0-0.8,0.2-1.1,0.7S142,20.3,142,21.2z"/>
		<path id="XMLID_20_" class="st0" d="M159.3,18.1c-0.4,0-0.8,0.2-1.2,0.5s-0.9,0.7-1.4,1.3s-0.9,1.1-1.3,1.7s-0.8,1.3-1.1,1.9
			c0,1.1-0.1,2.4-0.1,3.8s0,2.8,0,4.3c0,0.2-0.1,0.4-0.3,0.5s-0.4,0.3-0.6,0.4s-0.5,0.2-0.7,0.2s-0.4,0.1-0.6,0.1
			c-0.2,0-0.4-0.1-0.5-0.2s-0.3-0.4-0.3-0.8c0-0.2,0-0.4,0.1-0.7s0.1-0.6,0.1-0.9s0.1-0.7,0.2-1s0.1-0.7,0.2-1v-9.6
			c0-0.3,0-0.5,0-0.6s0-0.3,0.1-0.3c0.1-0.2,0.2-0.3,0.4-0.4s0.4-0.2,0.6-0.2s0.4-0.1,0.6-0.1s0.4,0,0.5,0c0.2,0,0.4,0.1,0.5,0.2
			s0.1,0.3,0.1,0.6c0,0,0,0.3-0.1,1s-0.1,1.6-0.1,2.9c0.4-0.6,0.8-1.2,1.3-1.8s0.9-1.1,1.4-1.5s1-0.8,1.5-1s1.1-0.4,1.6-0.4
			c1,0,1.7,0.3,2.1,0.9s0.7,1.5,0.7,2.5c0,0.7,0,1.4-0.1,2.2s-0.2,1.6-0.3,2.5s-0.2,1.7-0.3,2.5s-0.1,1.5-0.1,2.2
			c0,0.9,0.3,1.3,0.8,1.3c0.2,0,0.4-0.1,0.6-0.3s0.5-0.5,0.9-1s0.8-1.1,1.2-2s1.1-1.9,1.7-3.3l0.2-0.4l0.8,0.6l-0.2,0.4
			c-0.8,1.6-1.5,2.8-2.1,3.8s-1.2,1.8-1.7,2.4s-1,1-1.4,1.2s-0.9,0.3-1.3,0.3c-0.3,0-0.5,0-0.8-0.1s-0.5-0.2-0.7-0.4
			s-0.4-0.5-0.5-0.8s-0.2-0.8-0.2-1.3c0-0.8,0.1-1.7,0.2-2.6s0.2-2,0.4-2.9s0.2-1.9,0.4-2.8s0.2-1.6,0.2-2.1c0-0.5-0.1-0.9-0.3-1.2
			S159.7,18.1,159.3,18.1z"/>
		<path id="XMLID_17_" class="st0" d="M179,26c0,0.9-0.1,1.7-0.4,2.5s-0.7,1.5-1.2,2.2s-1.2,1.1-1.9,1.5s-1.6,0.6-2.6,0.6
			c-0.7,0-1.3-0.1-1.9-0.3s-1-0.5-1.4-0.9s-0.7-0.8-0.9-1.3s-0.3-1-0.3-1.5s0.1-1,0.3-1.5s0.5-0.8,0.8-1.2s0.7-0.6,1.2-0.8
			s0.9-0.3,1.4-0.3c0.3,0,0.6,0,1,0.1v0.6c-0.4,0-0.8,0.1-1.2,0.3s-0.7,0.4-1.1,0.7s-0.5,0.6-0.7,1.1s-0.3,0.8-0.3,1.3
			c0,0.9,0.3,1.5,0.9,2.1s1.4,0.8,2.4,0.8c0.5,0,1-0.1,1.4-0.3s0.8-0.5,1.1-0.8s0.5-0.8,0.7-1.3s0.2-1,0.2-1.6
			c0-0.6-0.1-1.1-0.3-1.6s-0.5-0.9-0.9-1.4s-0.8-0.8-1.2-1.2s-0.9-0.7-1.4-1.1s-0.9-0.7-1.4-1s-0.9-0.7-1.2-1l-2,4.3l-0.8-0.6l2-4.4
			c-0.5-0.5-0.8-0.9-1.1-1.3s-0.3-0.9-0.3-1.5c0-0.3,0.1-0.6,0.2-0.9s0.3-0.5,0.4-0.7s0.4-0.4,0.7-0.5s0.5-0.2,0.8-0.2
			c0.5,0,0.9,0.1,1.1,0.4s0.4,0.6,0.4,1c0,0.2,0,0.4-0.1,0.6s-0.1,0.4-0.1,0.6s-0.1,0.4-0.2,0.6s-0.1,0.3-0.1,0.5
			c0.4,0.3,0.9,0.6,1.4,0.9s1.1,0.6,1.7,0.9s1.2,0.6,1.8,1s1.1,0.7,1.6,1.2s0.8,0.9,1.1,1.5S179,25.3,179,26z M170,15.8
			c-0.2,0-0.3,0.1-0.4,0.2s-0.2,0.3-0.2,0.5c0,0.2,0.1,0.5,0.2,0.8s0.3,0.6,0.6,0.8c0.1-0.3,0.2-0.5,0.3-0.8s0.1-0.5,0.1-0.8
			c0-0.2-0.1-0.4-0.2-0.5S170.2,15.8,170,15.8z"/>
	</g>
	<g id="XMLID_4_">
		<g id="XMLID_5_">
			<path id="XMLID_16_" class="st0" d="M90.3,91.2c-0.6,0-1.1-0.2-1.5-0.6l-22-22c-0.4-0.4-0.6-1-0.6-1.5s0.2-1.1,0.6-1.5
				c0.4-0.4,1-0.6,1.5-0.6c0.6,0,1.1,0.2,1.5,0.6L90.3,86l20.5-20.5c0.4-0.4,1-0.6,1.5-0.6c0.6,0,1.1,0.2,1.5,0.6
				c0.4,0.4,0.6,1,0.6,1.6c0,0.6-0.3,1.1-0.7,1.5l-22,22C91.4,91,90.8,91.2,90.3,91.2z"/>
			<path id="XMLID_13_" class="st1" d="M112.3,65.4c0.4,0,0.9,0.2,1.2,0.5c0.7,0.7,0.7,1.7,0,2.4l-22,22c-0.3,0.3-0.8,0.5-1.2,0.5
				c-0.4,0-0.9-0.2-1.2-0.5l-22-22c-0.7-0.7-0.7-1.7,0-2.4c0.3-0.3,0.8-0.5,1.2-0.5c0.4,0,0.9,0.2,1.2,0.5l20.9,20.9l20.8-20.9
				C111.5,65.5,111.9,65.4,112.3,65.4 M112.3,64.4c-0.7,0-1.4,0.3-1.9,0.8L90.3,85.3L70.1,65.1c-0.5-0.5-1.2-0.8-1.9-0.8
				s-1.4,0.3-1.9,0.8c-0.5,0.5-0.8,1.2-0.8,1.9s0.3,1.4,0.8,1.9l22,22c0.5,0.5,1.2,0.8,1.9,0.8c0.7,0,1.4-0.3,1.9-0.8l22-22
				c0.5-0.5,0.8-1.2,0.8-1.9c0-0.7-0.3-1.4-0.8-1.9C113.7,64.6,113.1,64.4,112.3,64.4L112.3,64.4z"/>
		</g>
	</g>
</g>
</svg>
