<?xml version="1.0" encoding="utf-8"?>
<!-- Generator: Adobe Illustrator 19.0.0, SVG Export Plug-In . SVG Version: 6.00 Build 0)  -->
<svg version="1.1" id="Layer_1" xmlns="http://www.w3.org/2000/svg" xmlns:xlink="http://www.w3.org/1999/xlink" x="0px" y="0px"
	 viewBox="0 0 250 150" style="enable-background:new 0 0 250 150;" xml:space="preserve">
<style type="text/css">
	.st0{fill:#F9F9FA;}
	.st1{fill:#F15940;}
	.st2{opacity:0.5;}
	.st3{fill:#231F20;}
	.st4{fill:#FFFFFF;}
	.st5{fill:none;stroke:#FFFFFF;stroke-width:0.5;stroke-miterlimit:10;}
	.st6{fill:#E5E3E3;}
	.st7{opacity:0.1;}
	.st8{opacity:0.7;}
</style>
<rect id="XMLID_33_" x="0.1" y="47.3" class="st0" width="250" height="103.1"/>
<polygon id="XMLID_32_" class="st1" points="250,46.9 250,40.1 209.9,40.1 209.9,0 0,0 0,46.9 "/>
<polygon id="XMLID_31_" class="st1" points="212.6,0 212.6,37.4 250,37.4 "/>
<g id="XMLID_29_">
	<g id="XMLID_115_" class="st2">
		<path id="XMLID_121_" class="st3" d="M14.7,16.1c1-0.2,2.3-0.3,4-0.3c2.1,0,3.6,0.5,4.5,1.3c0.9,0.8,1.4,1.9,1.4,3.4
			c0,1.5-0.4,2.6-1.2,3.4c-1.1,1.2-2.9,1.8-4.9,1.8c-0.6,0-1.2,0-1.7-0.1V32h-2.1V16.1z M16.8,23.8c0.5,0.1,1,0.2,1.7,0.2
			c2.5,0,4-1.2,4-3.4c0-2.1-1.5-3.2-3.8-3.2c-0.9,0-1.6,0.1-2,0.2V23.8z"/>
		<path id="XMLID_118_" class="st3" d="M28,16.1c1.3-0.2,2.8-0.3,4.4-0.3c3,0,5.1,0.7,6.5,2c1.4,1.3,2.3,3.2,2.3,5.8
			c0,2.6-0.8,4.8-2.3,6.3c-1.5,1.5-4,2.3-7.1,2.3c-1.5,0-2.7-0.1-3.8-0.2V16.1z M30.1,30.3c0.5,0.1,1.3,0.1,2.1,0.1
			c4.4,0,6.9-2.5,6.9-6.8c0-3.8-2.1-6.2-6.5-6.2c-1.1,0-1.9,0.1-2.4,0.2V30.3z"/>
		<path id="XMLID_116_" class="st3" d="M44.5,15.9h8.7v1.7h-6.6V23h6.1v1.7h-6.1V32h-2.1V15.9z"/>
	</g>
	<g id="XMLID_106_">
		<path id="XMLID_112_" class="st4" d="M14.4,15.7c1-0.2,2.3-0.3,4-0.3c2.1,0,3.6,0.5,4.5,1.3c0.9,0.8,1.4,1.9,1.4,3.4
			c0,1.5-0.4,2.6-1.2,3.4c-1.1,1.2-2.9,1.8-4.9,1.8c-0.6,0-1.2,0-1.7-0.1v6.5h-2.1V15.7z M16.4,23.5c0.5,0.1,1,0.2,1.7,0.2
			c2.5,0,4-1.2,4-3.4c0-2.1-1.5-3.2-3.8-3.2c-0.9,0-1.6,0.1-2,0.2V23.5z"/>
		<path id="XMLID_109_" class="st4" d="M27.7,15.7c1.3-0.2,2.8-0.3,4.4-0.3c3,0,5.1,0.7,6.5,2c1.4,1.3,2.3,3.2,2.3,5.8
			c0,2.6-0.8,4.8-2.3,6.3c-1.5,1.5-4,2.3-7.1,2.3c-1.5,0-2.7-0.1-3.8-0.2V15.7z M29.8,30c0.5,0.1,1.3,0.1,2.1,0.1
			c4.4,0,6.9-2.5,6.9-6.8c0-3.8-2.1-6.2-6.5-6.2c-1.1,0-1.9,0.1-2.4,0.2V30z"/>
		<path id="XMLID_107_" class="st4" d="M44.2,15.5h8.7v1.7h-6.6v5.4h6.1v1.7h-6.1v7.3h-2.1V15.5z"/>
	</g>
	<g id="XMLID_97_">
		<path id="XMLID_103_" class="st5" d="M14.4,15.7c1-0.2,2.3-0.3,4-0.3c2.1,0,3.6,0.5,4.5,1.3c0.9,0.8,1.4,1.9,1.4,3.4
			c0,1.5-0.4,2.6-1.2,3.4c-1.1,1.2-2.9,1.8-4.9,1.8c-0.6,0-1.2,0-1.7-0.1v6.5h-2.1V15.7z M16.4,23.5c0.5,0.1,1,0.2,1.7,0.2
			c2.5,0,4-1.2,4-3.4c0-2.1-1.5-3.2-3.8-3.2c-0.9,0-1.6,0.1-2,0.2V23.5z"/>
		<path id="XMLID_100_" class="st5" d="M27.7,15.7c1.3-0.2,2.8-0.3,4.4-0.3c3,0,5.1,0.7,6.5,2c1.4,1.3,2.3,3.2,2.3,5.8
			c0,2.6-0.8,4.8-2.3,6.3c-1.5,1.5-4,2.3-7.1,2.3c-1.5,0-2.7-0.1-3.8-0.2V15.7z M29.8,30c0.5,0.1,1.3,0.1,2.1,0.1
			c4.4,0,6.9-2.5,6.9-6.8c0-3.8-2.1-6.2-6.5-6.2c-1.1,0-1.9,0.1-2.4,0.2V30z"/>
		<path id="XMLID_98_" class="st5" d="M44.2,15.5h8.7v1.7h-6.6v5.4h6.1v1.7h-6.1v7.3h-2.1V15.5z"/>
	</g>
</g>
<g id="XMLID_27_">
	<path id="XMLID_14_" class="st6" d="M137.9,76.8H24c-4.9,0-9-4-9-9v0c0-4.9,4-9,9-9h113.8c4.9,0,9,4,9,9v0
		C146.9,72.7,142.8,76.8,137.9,76.8z"/>
	<g id="XMLID_25_">
		<path id="XMLID_16_" class="st6" d="M166.8,99.9H19.6c-2.7,0-4.9-2.2-4.9-4.9v0c0-2.7,2.2-4.9,4.9-4.9h147.2
			c2.7,0,4.9,2.2,4.9,4.9v0C171.7,97.7,169.5,99.9,166.8,99.9z"/>
		<path id="XMLID_17_" class="st6" d="M230.6,99.9h-47.8c-2.7,0-4.9-2.2-4.9-4.9v0c0-2.7,2.2-4.9,4.9-4.9h47.8
			c2.7,0,4.9,2.2,4.9,4.9v0C235.4,97.7,233.2,99.9,230.6,99.9z"/>
	</g>
	<g id="XMLID_18_">
		<path id="XMLID_21_" class="st6" d="M83.3,119.4h147.2c2.7,0,4.9-2.2,4.9-4.9v0c0-2.7-2.2-4.9-4.9-4.9H83.3
			c-2.7,0-4.9,2.2-4.9,4.9v0C78.4,117.2,80.6,119.4,83.3,119.4z"/>
		<path id="XMLID_20_" class="st6" d="M19.6,119.4h47.8c2.7,0,4.9-2.2,4.9-4.9v0c0-2.7-2.2-4.9-4.9-4.9H19.6c-2.7,0-4.9,2.2-4.9,4.9
			v0C14.7,117.2,16.9,119.4,19.6,119.4z"/>
	</g>
	<g id="XMLID_26_">
		<path id="XMLID_24_" class="st6" d="M83.3,138.9h62.5c2.7,0,4.9-2.2,4.9-4.9l0,0c0-2.7-2.2-4.9-4.9-4.9H83.3
			c-2.7,0-4.9,2.2-4.9,4.9l0,0C78.4,136.7,80.6,138.9,83.3,138.9z"/>
		<path id="XMLID_23_" class="st6" d="M19.6,138.9h47.8c2.7,0,4.9-2.2,4.9-4.9l0,0c0-2.7-2.2-4.9-4.9-4.9H19.6
			c-2.7,0-4.9,2.2-4.9,4.9l0,0C14.7,136.7,16.9,138.9,19.6,138.9z"/>
		<path id="XMLID_28_" class="st6" d="M162.6,138.9h68c2.7,0,4.9-2.2,4.9-4.9l0,0c0-2.7-2.2-4.9-4.9-4.9h-68c-2.7,0-4.9,2.2-4.9,4.9
			l0,0C157.7,136.7,159.9,138.9,162.6,138.9z"/>
	</g>
</g>
<g id="XMLID_48_">
	<rect id="XMLID_63_" y="47" class="st7" width="250.1" height="103.4"/>
</g>
<circle id="XMLID_22_" class="st8" cx="125" cy="98.4" r="27.5"/>
<g id="XMLID_45_">
	<path id="XMLID_58_" class="st4" d="M137,98c-0.2-0.3-4-6.8-10.8-6.8c-6.8,0-10.6,6.5-10.8,6.8c-0.2,0.3-0.2,0.6,0,0.9
		s4,6.8,10.8,6.8c6.8,0,10.6-6.5,10.8-6.8C137.1,98.6,137.1,98.3,137,98z M126.3,103c-2.5,0-4.5-2-4.5-4.5s2-4.5,4.5-4.5
		s4.5,2,4.5,4.5S128.8,103,126.3,103z"/>
	<path id="XMLID_55_" class="st4" d="M126.3,95.7c-1.5,0-2.7,1.2-2.7,2.7s1.2,2.7,2.7,2.7c1.5,0,2.7-1.2,2.7-2.7
		S127.8,95.7,126.3,95.7z M127.2,98.4c-0.5,0-0.9-0.4-0.9-0.9s0.4-0.9,0.9-0.9s0.9,0.4,0.9,0.9S127.7,98.4,127.2,98.4z"/>
</g>
</svg>
