<?xml version="1.0" encoding="utf-8"?>
<!-- Generator: Adobe Illustrator 19.0.0, SVG Export Plug-In . SVG Version: 6.00 Build 0)  -->
<svg version="1.1" id="Capa_1" xmlns="http://www.w3.org/2000/svg" xmlns:xlink="http://www.w3.org/1999/xlink" x="0px" y="0px"
	 viewBox="10.7 84.7 63.2 63.2" style="enable-background:new 10.7 84.7 63.2 63.2;" xml:space="preserve">
<style type="text/css">
	.st0{fill:#FFDA44;}
	.st1{opacity:0.35;fill:#231F20;}
	.st2{fill:#FFFFFF;}
</style>
<path class="st0" d="M42.2,147.8c-17.4,0-31.6-14.2-31.6-31.6c0-17.4,14.2-31.6,31.6-31.6s31.6,14.2,31.6,31.6
	C73.8,133.7,59.7,147.8,42.2,147.8z"/>
<path class="st1" d="M42.3,86.7c16.3,0,29.6,13.3,29.6,29.6s-13.3,29.6-29.6,29.6s-29.6-13.3-29.6-29.6S25.9,86.7,42.3,86.7
	 M42.3,84.7c-17.4,0-31.6,14.1-31.6,31.6s14.1,31.6,31.6,31.6s31.6-14.1,31.6-31.6S59.7,84.7,42.3,84.7L42.3,84.7z"/>
<g>
	<g>
		<path class="st2" d="M37.7,105.6h9.5c0.3,0,0.5-0.3,0.5-0.5c0-0.3-0.3-0.5-0.5-0.5h-9.5c-0.3,0-0.5,0.3-0.5,0.5
			C37.2,105.5,37.4,105.6,37.7,105.6z"/>
		<path class="st2" d="M55.2,106.7H29.3c-0.9,0-1.7,0.8-1.7,1.7v17.9c0,0.9,0.8,1.7,1.7,1.7h25.9c0.9,0,1.7-0.8,1.7-1.7v-17.8
			C56.9,107.4,56.1,106.7,55.2,106.7z M42.7,125.8c-4.8,0-8.6-3.9-8.6-8.6s3.9-8.6,8.6-8.6s8.6,3.9,8.6,8.6S47.5,125.8,42.7,125.8z"
			/>
	</g>
	<circle class="st2" cx="42.7" cy="117.2" r="5.4"/>
</g>
</svg>
