<?xml version="1.0" encoding="utf-8"?>
<!-- Generator: Adobe Illustrator 22.1.0, SVG Export Plug-In . SVG Version: 6.00 Build 0)  -->
<svg version="1.1" id="Capa_1" xmlns="http://www.w3.org/2000/svg" xmlns:xlink="http://www.w3.org/1999/xlink" x="0px" y="0px"
	 viewBox="0 0 51.9 58.2" style="enable-background:new 0 0 51.9 58.2;" xml:space="preserve">
<style type="text/css">
	.st0{fill:#EBF3FF;}
	.st1{fill:#546B8D;}
	.st2{fill:#FF9999;}
	.st3{fill:#424A60;}
	.st4{fill:none;stroke:#E65A5A;stroke-miterlimit:10;}
	.st5{fill:#B04141;}
	.st6{fill:#F8F2EC;}
	.st7{fill:#F8A9AC;}
	.st8{fill:#7EB1FA;}
	.st9{fill:#9E8CE8;}
	.st10{fill:#66E8A6;}
	.st11{fill:#FFE06D;}
	.st12{fill:#74D687;}
	.st13{fill:#FA7E7E;}
	.st14{fill:#E4AF18;}
	.st15{fill:#F4BF1A;}
	.st16{fill:#FFD949;}
	.st17{fill:#DCA815;}
	.st18{fill:#C49214;}
	.st19{fill:#FCC62D;}
</style>
<g>
	<g>
		<g>
			<path class="st0" d="M9.2,27.4l-0.7-0.9c-0.4-0.6-0.3-1.4,0.3-1.9l16.7-12.1c0.6-0.4,1.4-0.3,1.9,0.3l0.7,0.9
				c0.4,0.6,0.3,1.4-0.3,1.9L11.1,27.7C10.5,28.1,9.7,28,9.2,27.4z"/>
			<path class="st0" d="M3.4,40.4l-0.7-0.9C2.3,38.9,2.5,38,3,37.6l34.9-25.4c0.6-0.4,1.4-0.3,1.9,0.3l0.7,0.9
				c0.4,0.6,0.3,1.4-0.3,1.9L5.3,40.7C4.7,41.1,3.9,41,3.4,40.4z"/>
			<path class="st0" d="M11.7,44.5L11,43.6c-0.4-0.6-0.3-1.4,0.3-1.9l31.6-23c0.6-0.4,1.4-0.3,1.9,0.3l0.7,0.9
				c0.4,0.6,0.3,1.4-0.3,1.9l-31.6,23C13,45.2,12.1,45.1,11.7,44.5z"/>
			<path class="st0" d="M18.8,49.9L18.1,49c-0.4-0.6-0.3-1.4,0.3-1.9l24.7-18c0.6-0.4,1.4-0.3,1.9,0.3l0.7,0.9
				c0.4,0.6,0.3,1.4-0.3,1.9l-24.7,18C20.1,50.6,19.2,50.5,18.8,49.9z"/>
			<path class="st0" d="M33.3,38.6c0.2-0.2,0.4-0.3,0.6-0.5c1.1-0.9,1.2-2.2,0.1-2.3c-1.2-0.1-2.2-0.6-2.8-1.5
				c-0.6-0.9-0.8-2-0.5-3.1c0.2-1-1-1.4-2.2-0.6c-0.2,0.1-0.4,0.3-0.6,0.4c-1.1,0.8-2,1.8-2.6,2.9c-0.4,0.7-0.2,1.3,0.5,1.4
				c0.9,0.2,1.7,0.6,2.2,1.4c0.5,0.7,0.7,1.6,0.6,2.5c-0.1,0.7,0.4,1,1.2,0.9C30.9,40,32.1,39.5,33.3,38.6z"/>
		</g>
		<path class="st1" d="M36.3,52.7H17.6c-1.4,0-2.5-1.1-2.5-2.5V12.1c0-1.4,1.1-2.5,2.5-2.5h18.7c1.4,0,2.5,1.1,2.5,2.5v38.1
			C38.9,51.5,37.7,52.7,36.3,52.7z"/>
		<rect x="15.1" y="11.9" class="st2" width="23.8" height="38.4"/>
		<g>
			<path class="st3" d="M28.8,10.9h-5.5c-0.1,0-0.2-0.1-0.2-0.2l0,0c0-0.1,0.1-0.2,0.2-0.2h5.5c0.1,0,0.2,0.1,0.2,0.2l0,0
				C29,10.8,28.9,10.9,28.8,10.9z"/>
			<path class="st3" d="M30.6,10.9h-0.8c-0.1,0-0.2-0.1-0.2-0.2l0,0c0-0.1,0.1-0.2,0.2-0.2h0.8c0.1,0,0.2,0.1,0.2,0.2l0,0
				C30.9,10.8,30.7,10.9,30.6,10.9z"/>
		</g>
		<g>
			<path class="st4" d="M17.1,22.9c0,0-0.3-2.4,1.8-2.4s1.7,2.4,1.7,2.4"/>
			<path class="st4" d="M33.4,22.9c0,0-0.3-2.4,1.8-2.4s1.7,2.4,1.7,2.4"/>
			<g>
				<path class="st5" d="M23.2,27.6c0,0,5.3,0,6.2,0c0.9,0,3,0.1,2.5,2.1S29,32.9,27.7,33c-1.3,0.1-4.3-0.1-5.6-2.7
					C20.8,27.7,23.2,27.6,23.2,27.6z"/>
				<path class="st6" d="M28.9,29.7h-1.6c-0.2,0-0.4-0.2-0.4-0.4v-1.7h2.4v1.7C29.3,29.5,29.1,29.7,28.9,29.7z"/>
			</g>
		</g>
		<path class="st7" d="M35.8,50.3v-5c0-4.9-4-9-9-9h0c-4.9,0-9,4-9,9v5H35.8z"/>
		<g>
			<g>
				<g>
					<path class="st8" d="M40.1,2.5c-0.7,0-1.3-0.6-1.3-1.3c0-0.7,0.6-1.3,1.3-1.3c0.7,0,1.3,0.6,1.3,1.3
						C41.3,1.9,40.7,2.5,40.1,2.5z M40.1,0.5c-0.4,0-0.8,0.3-0.8,0.8c0,0.4,0.3,0.8,0.8,0.8c0.4,0,0.8-0.3,0.8-0.8
						C40.8,0.8,40.5,0.5,40.1,0.5z"/>
				</g>
				<g>
					<path class="st9" d="M3.8,47.4c-0.5,0-1-0.4-1-1c0-0.5,0.4-1,1-1s1,0.4,1,1C4.8,47,4.3,47.4,3.8,47.4z M3.8,46
						c-0.3,0-0.5,0.2-0.5,0.5c0,0.3,0.2,0.5,0.5,0.5s0.5-0.2,0.5-0.5C4.3,46.2,4.1,46,3.8,46z"/>
				</g>
				<g>
					<path class="st10" d="M46.5,38.2c-0.7,0-1.3-0.6-1.3-1.3c0-0.7,0.6-1.3,1.3-1.3c0.7,0,1.3,0.6,1.3,1.3
						C47.7,37.6,47.2,38.2,46.5,38.2z M46.5,36.2c-0.4,0-0.8,0.3-0.8,0.8c0,0.4,0.3,0.8,0.8,0.8c0.4,0,0.8-0.3,0.8-0.8
						C47.2,36.5,46.9,36.2,46.5,36.2z"/>
				</g>
				<g>
					<path class="st11" d="M10.9,9.2L9.2,7.5l1.7-1.7l1.7,1.7L10.9,9.2z M9.9,7.5l1,1l1-1l-1-1L9.9,7.5z"/>
				</g>
				<g>
					<path class="st12" d="M3.5,27.4H0l1.8-3.6L3.5,27.4z M0.8,26.9h1.9l-1-2L0.8,26.9z"/>
				</g>
				<g>
					<path class="st13" d="M51.9,48.7h-2.5l1.2-2.5L51.9,48.7z M50.2,48.2h0.9l-0.4-0.9L50.2,48.2z"/>
				</g>
			</g>
			<polygon class="st11" points="45.7,13.9 44.8,13.7 44,14.4 44,13.4 43.1,12.9 44,12.5 44.2,11.6 44.8,12.3 45.8,12.2 45.3,13 			
				"/>
		</g>
	</g>
	<g id="XMLID_21_">
		<path id="XMLID_148_" class="st14" d="M16,56.1c-3.5,0-6.3-0.7-6.3-1.5v1.7c0,0.7,2.8,1.5,6.3,1.5s6.3-0.7,6.3-1.5v-1.7
			C22.3,55.4,19.5,56.1,16,56.1"/>
		<path id="XMLID_147_" class="st15" d="M15.2,53.5c-3.5,0-6.3-0.7-6.3-1.5v1.7c0,0.7,2.8,1.5,6.3,1.5s6.3-0.7,6.3-1.5V52
			C21.6,52.7,18.7,53.5,15.2,53.5"/>
		<path id="XMLID_146_" class="st14" d="M16.7,50.8c-3.5,0-6.3-0.7-6.3-1.5V51c0,0.7,2.8,1.5,6.3,1.5S23,51.8,23,51v-1.7
			C23,50.1,20.2,50.8,16.7,50.8"/>
		<path id="XMLID_145_" class="st16" d="M21.6,46.4c0,0.7-2.8,1.4-6.3,1.4s-6.3-0.7-6.3-1.4c0-0.7,2.8-1.3,6.3-1.3
			S21.6,45.7,21.6,46.4"/>
		<path id="XMLID_144_" class="st15" d="M15.2,47.9c-3.5,0-6.3-0.7-6.3-1.5v1.7c0,0.7,2.8,1.5,6.3,1.5s6.3-0.7,6.3-1.5v-1.7
			C21.6,47.1,18.7,47.9,15.2,47.9"/>
		<path id="XMLID_143_" class="st17" d="M9.9,47.1v1.7c0.1,0.1,0.3,0.1,0.5,0.2v-1.7C10.2,47.2,10,47.2,9.9,47.1"/>
		<path id="XMLID_142_" class="st17" d="M20.1,47.3V49c0.2-0.1,0.3-0.1,0.5-0.2v-1.7C20.4,47.2,20.3,47.2,20.1,47.3"/>
		<path id="XMLID_141_" class="st17" d="M11.1,47.5v1.7c0.2,0,0.3,0.1,0.5,0.1v-1.7C11.4,47.5,11.2,47.5,11.1,47.5"/>
		<path id="XMLID_140_" class="st17" d="M18.9,47.6v1.7c0.2,0,0.3-0.1,0.5-0.1v-1.7C19.2,47.5,19,47.5,18.9,47.6"/>
		<path id="XMLID_139_" class="st17" d="M12.3,47.7v1.7c0.2,0,0.3,0,0.5,0.1v-1.7C12.6,47.7,12.5,47.7,12.3,47.7"/>
		<path id="XMLID_138_" class="st17" d="M17.7,47.7v1.7c0.2,0,0.3,0,0.5-0.1v-1.7C18,47.7,17.8,47.7,17.7,47.7"/>
		<path id="XMLID_137_" class="st17" d="M13.5,47.8v1.7c0.2,0,0.3,0,0.5,0v-1.7C13.8,47.8,13.7,47.8,13.5,47.8"/>
		<path id="XMLID_136_" class="st17" d="M16.4,47.8v1.7c0.2,0,0.3,0,0.5,0v-1.7C16.8,47.8,16.6,47.8,16.4,47.8"/>
		<path id="XMLID_135_" class="st17" d="M15.2,47.9c-0.1,0-0.2,0-0.2,0v1.7c0.1,0,0.2,0,0.2,0s0.2,0,0.2,0v-1.7
			C15.4,47.9,15.3,47.9,15.2,47.9"/>
		<path id="XMLID_134_" class="st18" d="M11.3,50.1v1.7c0.1,0.1,0.3,0.1,0.5,0.2v-1.7C11.6,50.2,11.5,50.1,11.3,50.1"/>
		<path id="XMLID_133_" class="st18" d="M21.6,50.2v1.7c0.2-0.1,0.3-0.1,0.5-0.2v-1.7C21.9,50.1,21.7,50.2,21.6,50.2"/>
		<path id="XMLID_132_" class="st18" d="M12.5,50.4v1.7c0.2,0,0.3,0.1,0.5,0.1v-1.7C12.9,50.5,12.7,50.4,12.5,50.4"/>
		<path id="XMLID_131_" class="st18" d="M20.3,50.5v1.7c0.2,0,0.3-0.1,0.5-0.1v-1.7C20.7,50.4,20.5,50.5,20.3,50.5"/>
		<path id="XMLID_130_" class="st18" d="M13.8,50.6v1.7c0.2,0,0.3,0,0.5,0.1v-1.7C14.1,50.6,13.9,50.6,13.8,50.6"/>
		<path id="XMLID_129_" class="st18" d="M19.1,50.7v1.7c0.2,0,0.3,0,0.5-0.1v-1.7C19.5,50.6,19.3,50.6,19.1,50.7"/>
		<path id="XMLID_128_" class="st18" d="M15,50.7v1.7c0.2,0,0.3,0,0.5,0v-1.7C15.3,50.7,15.1,50.7,15,50.7"/>
		<path id="XMLID_127_" class="st18" d="M17.9,50.7v1.7c0.2,0,0.3,0,0.5,0v-1.7C18.2,50.7,18.1,50.7,17.9,50.7"/>
		<path id="XMLID_126_" class="st18" d="M16.7,50.8c-0.1,0-0.2,0-0.2,0v1.7c0.1,0,0.2,0,0.2,0c0.1,0,0.2,0,0.2,0v-1.7
			C16.8,50.8,16.8,50.8,16.7,50.8"/>
		<path id="XMLID_125_" class="st17" d="M9.9,52.7v1.7c0.1,0.1,0.3,0.1,0.5,0.2v-1.7C10.2,52.9,10,52.8,9.9,52.7"/>
		<path id="XMLID_124_" class="st17" d="M20.1,52.9v1.7c0.2-0.1,0.3-0.1,0.5-0.2v-1.7C20.4,52.8,20.3,52.9,20.1,52.9"/>
		<path id="XMLID_123_" class="st17" d="M11.1,53.1v1.7c0.2,0,0.3,0.1,0.5,0.1v-1.7C11.4,53.1,11.2,53.1,11.1,53.1"/>
		<path id="XMLID_122_" class="st17" d="M18.9,53.2v1.7c0.2,0,0.3-0.1,0.5-0.1v-1.7C19.2,53.1,19,53.1,18.9,53.2"/>
		<path id="XMLID_121_" class="st17" d="M12.3,53.3V55c0.2,0,0.3,0,0.5,0.1v-1.7C12.6,53.3,12.5,53.3,12.3,53.3"/>
		<path id="XMLID_120_" class="st17" d="M17.7,53.3V55c0.2,0,0.3,0,0.5-0.1v-1.7C18,53.3,17.8,53.3,17.7,53.3"/>
		<path id="XMLID_119_" class="st17" d="M13.5,53.4v1.7c0.2,0,0.3,0,0.5,0v-1.7C13.8,53.4,13.7,53.4,13.5,53.4"/>
		<path id="XMLID_118_" class="st17" d="M16.4,53.4v1.7c0.2,0,0.3,0,0.5,0v-1.7C16.8,53.4,16.6,53.4,16.4,53.4"/>
		<path id="XMLID_117_" class="st17" d="M15.2,53.5c-0.1,0-0.2,0-0.2,0v1.7c0.1,0,0.2,0,0.2,0s0.2,0,0.2,0v-1.7
			C15.4,53.5,15.3,53.5,15.2,53.5"/>
		<path id="XMLID_116_" class="st18" d="M10.6,55.4v1.7c0.1,0.1,0.3,0.1,0.5,0.2v-1.7C10.9,55.5,10.7,55.5,10.6,55.4"/>
		<path id="XMLID_115_" class="st18" d="M20.8,55.6v1.7c0.2-0.1,0.3-0.1,0.5-0.2v-1.7C21.2,55.5,21,55.5,20.8,55.6"/>
		<path id="XMLID_114_" class="st18" d="M11.8,55.8v1.7c0.2,0,0.3,0.1,0.5,0.1v-1.7C12.1,55.8,12,55.8,11.8,55.8"/>
		<path id="XMLID_113_" class="st18" d="M19.6,55.9v1.7c0.2,0,0.3-0.1,0.5-0.1v-1.7C19.9,55.8,19.8,55.8,19.6,55.9"/>
		<path id="XMLID_112_" class="st18" d="M13,56v1.7c0.2,0,0.3,0,0.5,0.1V56C13.3,56,13.2,56,13,56"/>
		<path id="XMLID_111_" class="st18" d="M18.4,56v1.7c0.2,0,0.3,0,0.5-0.1V56C18.7,56,18.6,56,18.4,56"/>
		<path id="XMLID_110_" class="st18" d="M14.2,56.1v1.7c0.2,0,0.3,0,0.5,0v-1.7C14.6,56.1,14.4,56.1,14.2,56.1"/>
		<path id="XMLID_109_" class="st18" d="M17.2,56.1v1.7c0.2,0,0.3,0,0.5,0v-1.7C17.5,56.1,17.3,56.1,17.2,56.1"/>
		<path id="XMLID_108_" class="st18" d="M16,56.1c-0.1,0-0.2,0-0.2,0v1.7c0.1,0,0.2,0,0.2,0c0.1,0,0.2,0,0.2,0v-1.7
			C16.1,56.1,16,56.1,16,56.1"/>
		<path id="XMLID_107_" class="st19" d="M21.4,54c-0.7,0.6-3.2,1.1-6.1,1.1c-2.3,0-4.3-0.3-5.5-0.7c-0.1,0.1-0.2,0.2-0.2,0.3
			c0,0.7,2.8,1.4,6.3,1.4c3.5,0,6.3-0.7,6.3-1.4C22.3,54.5,22,54.2,21.4,54"/>
		<path id="XMLID_106_" class="st16" d="M16.7,52.5c-3.2,0-5.9-0.6-6.3-1.3c-0.9,0.2-1.5,0.5-1.5,0.8c0,0.7,2.8,1.4,6.3,1.4
			s6.3-0.7,6.3-1.4c0,0,0-0.1,0-0.1C20.4,52.3,18.6,52.5,16.7,52.5"/>
		<path id="XMLID_105_" class="st19" d="M21.3,48.5c-0.8,0.6-3.2,1.1-6.1,1.1c-1.9,0-3.6-0.2-4.7-0.5c-0.1,0.1-0.2,0.2-0.2,0.3
			c0,0.7,2.8,1.4,6.3,1.4s6.3-0.7,6.3-1.4C23,49,22.4,48.7,21.3,48.5"/>
		<g>
			<path id="XMLID_11_" class="st16" d="M8.6,47.5c0.6,0.4-0.3,2.9-2,5.7S3,57.8,2.4,57.4c-0.6-0.4,0.4-2.8,2.1-5.6
				C6.2,49.1,8,47.1,8.6,47.5"/>
			<path id="XMLID_10_" class="st15" d="M6.6,53.1c-1.7,2.7-3.6,4.6-4.2,4.3l1.3,0.8c0.6,0.4,2.5-1.5,4.2-4.3s2.5-5.3,1.9-5.7
				l-1.3-0.8C9.1,47.8,8.3,50.4,6.6,53.1"/>
			<path id="XMLID_9_" class="st17" d="M3.4,57l1.3,0.8c0.1-0.1,0.2-0.2,0.4-0.3l-1.3-0.8C3.7,56.8,3.6,56.9,3.4,57"/>
			<path id="XMLID_8_" class="st17" d="M8.5,49l1.3,0.8c0-0.2,0.1-0.3,0.1-0.5l-1.3-0.8C8.6,48.7,8.6,48.9,8.5,49"/>
			<path id="XMLID_7_" class="st17" d="M4.3,56.2L5.6,57c0.1-0.1,0.2-0.2,0.3-0.3l-1.3-0.8C4.5,56,4.4,56.1,4.3,56.2"/>
			<path id="XMLID_6_" class="st17" d="M8.1,50.1L9.5,51c0.1-0.1,0.1-0.3,0.2-0.4l-1.3-0.8C8.3,49.8,8.2,50,8.1,50.1"/>
			<path id="XMLID_5_" class="st17" d="M5,55.3l1.3,0.8c0.1-0.1,0.2-0.2,0.3-0.4L5.3,55C5.2,55.1,5.1,55.2,5,55.3"/>
			<path id="XMLID_4_" class="st17" d="M7.7,51.2L9,52c0.1-0.1,0.1-0.3,0.2-0.4l-1.3-0.8C7.8,50.9,7.8,51,7.7,51.2"/>
			<path id="XMLID_3_" class="st17" d="M5.7,54.4l1.3,0.8c0.1-0.1,0.2-0.2,0.3-0.4L6,54.1C5.9,54.2,5.8,54.3,5.7,54.4"/>
			<path id="XMLID_2_" class="st17" d="M7.2,52.2L8.5,53c0.1-0.1,0.1-0.3,0.2-0.4l-1.3-0.8C7.3,51.9,7.2,52,7.2,52.2"/>
			<path id="XMLID_1_" class="st17" d="M6.6,53.1c0,0.1-0.1,0.1-0.1,0.2l1.3,0.8c0-0.1,0.1-0.1,0.1-0.2c0-0.1,0.1-0.1,0.1-0.2
				l-1.3-0.8C6.7,53,6.6,53.1,6.6,53.1"/>
		</g>
	</g>
</g>
</svg>
