<?xml version="1.0" encoding="utf-8"?>
<!-- Generator: Adobe Illustrator 19.0.0, SVG Export Plug-In . SVG Version: 6.00 Build 0)  -->
<svg version="1.1" id="Capa_1" xmlns="http://www.w3.org/2000/svg" xmlns:xlink="http://www.w3.org/1999/xlink" x="0px" y="0px"
	 viewBox="-70 46 59 59" style="enable-background:new -70 46 59 59;" xml:space="preserve">
<style type="text/css">
	.st0{fill:#6d58cf;}
</style>
<g>
	<path class="st0" d="M-20.9,93.8l-10.7-5.3c-1.3-0.7-2.2-2.1-2.2-3.7V81c0-0.3,0.1-0.5,0.3-0.7c0.2-0.3,0.5-0.6,0.7-1
		c1.4-2,2.6-4.3,3.3-6.7c1.3-0.4,2.3-1.7,2.3-3.2v-4.5c0-1-0.4-1.9-1.1-2.4V56c0,0,1.3-10-12.2-10s-12.2,10-12.2,10v6.5
		c-0.7,0.6-1.1,1.4-1.1,2.4v4.5c0,1.2,0.7,2.2,1.6,2.8c0.9,4.1,3.1,7.2,3.8,8.1c0.1,0.2,0.2,0.4,0.2,0.6v3.8c0,1.4-0.8,2.9-2.1,3.6
		l-9.9,5.5c-2.9,1.6-4.7,4.6-4.7,7.8v3.6h49v-3.3C-16,98.3-17.9,95.3-20.9,93.8z"/>
</g>
</svg>
