<?xml version="1.0" encoding="utf-8"?>
<!-- Generator: Adobe Illustrator 22.1.0, SVG Export Plug-In . SVG Version: 6.00 Build 0)  -->
<svg version="1.1" id="Capa_1" xmlns="http://www.w3.org/2000/svg" xmlns:xlink="http://www.w3.org/1999/xlink" x="0px" y="0px"
	 viewBox="0 0 63.2 63.2" style="enable-background:new 0 0 63.2 63.2;" xml:space="preserve">
<style type="text/css">
	.st0{fill:#FFDA44;}
	.st1{opacity:0.35;fill:#231F20;enable-background:new    ;}
	.st2{fill:#FFFFFF;}
</style>
<path class="st0" d="M31.6,63.2C14.2,63.2,0,49,0,31.6S14.2,0,31.6,0s31.6,14.2,31.6,31.6C63.2,49.1,49.1,63.2,31.6,63.2z"/>
<path class="st1" d="M31.6,2c16.3,0,29.6,13.3,29.6,29.6S47.9,61.2,31.6,61.2S2,47.9,2,31.6S15.2,2,31.6,2 M31.6,0
	C14.2,0,0,14.1,0,31.6s14.1,31.6,31.6,31.6s31.6-14.1,31.6-31.6S49,0,31.6,0L31.6,0z"/>
<path class="st2" d="M31.5,17.4c-2.5,0-4.2,0.8-5.3,2.2c-1.3,1.7-1.5,4.3-0.7,7.7c-0.3,0.4-0.5,0.9-0.4,1.7c0.2,1.5,0.7,2.1,1.2,2.3
	c0.2,1.2,0.9,2.4,1.5,3.1v0.3c0,0.7,0,1.3-0.1,2c-0.4,0.9-1.8,1.5-3.3,2.1c-2.6,1-5.8,2.3-6.1,6.3l0,0.7H45l0-0.7
	c0-0.3-0.1-0.5-0.1-0.8c0-0.1,0-0.1,0-0.2c0-0.2-0.1-0.4-0.1-0.6c0-0.1,0-0.1-0.1-0.1c-0.1-0.2-0.1-0.4-0.2-0.6c0,0,0-0.1,0-0.1
	c-0.1-0.2-0.2-0.4-0.3-0.6c-1.2-1.9-3.3-2.7-5.2-3.4c-1.6-0.6-2.9-1.2-3.3-2.1c-0.1-0.8,0-1.3,0-2v-0.3c0.6-0.6,1.2-1.9,1.4-3.1
	c0.5-0.2,1.1-0.8,1.2-2.3c0.1-0.7-0.1-1.3-0.4-1.6c0.4-1.3,1.2-4.8-0.2-7c-0.3-0.5-0.7-0.9-1.1-1.1c-0.2-0.1-0.4-0.3-0.7-0.4
	c-0.2-0.1-0.5-0.2-0.8-0.2C34.3,17.8,33.1,17.4,31.5,17.4z"/>
</svg>
