<?xml version="1.0" encoding="utf-8"?>
<!-- Generator: Adobe Illustrator 19.0.0, SVG Export Plug-In . SVG Version: 6.00 Build 0)  -->
<svg version="1.1" id="Layer_1" xmlns="http://www.w3.org/2000/svg" xmlns:xlink="http://www.w3.org/1999/xlink" x="0px" y="0px"
	 viewBox="0 0 163.9 119.9" style="enable-background:new 0 0 163.9 119.9;" xml:space="preserve">
<style type="text/css">
	.st0{fill:#FFFFFF;}
	.st1{fill:#010101;}
</style>
<g>
	<g>
		<path class="st0" d="M14.8,87.7c0.3-0.2,0.6-0.5,0.8-0.8s0.4-0.7,0.6-1c0.2-0.4,0.3-0.7,0.4-1.2c0.1-0.4,0.1-0.8,0.1-1.2
			c0-0.6-0.1-1.2-0.3-1.9c-0.2-0.6-0.6-1.2-1-1.7c-0.5-0.5-1.1-0.9-1.8-1.2s-1.7-0.5-2.8-0.5c-1.2,0-2.3,0.2-3.4,0.6s-2,0.9-2.8,1.6
			s-1.4,1.4-1.9,2.3C2.2,83.6,2,84.5,2,85.5c0,1,0.2,1.9,0.7,2.7c0.5,0.8,1.1,1.5,1.9,2.1c0.8,0.6,1.7,1.2,2.6,1.7
			c1,0.5,2,1.1,3,1.6c1,0.5,2,1.1,3,1.6s1.9,1.2,2.6,1.9c0.8,0.7,1.4,1.5,1.9,2.4c0.5,0.9,0.7,1.9,0.7,3c0,1.1-0.3,2.1-0.8,3.1
			c-0.5,1-1.2,1.9-2.1,2.7c-0.9,0.8-2,1.4-3.2,1.9s-2.6,0.7-4,0.7c-1.6,0-2.9-0.2-3.9-0.5c-1-0.3-1.9-0.8-2.5-1.3
			c-0.6-0.5-1-1.1-1.3-1.7s-0.4-1.2-0.4-1.7c0-0.6,0.1-1.2,0.3-1.7c0.2-0.5,0.5-1,0.8-1.4s0.7-0.8,1.1-1.1c0.4-0.3,0.9-0.6,1.3-0.8
			s0.9-0.4,1.3-0.5s0.8-0.2,1.1-0.3l0.2,1c-0.2,0.1-0.4,0.2-0.8,0.4c-0.4,0.2-0.8,0.5-1.3,0.9c-0.4,0.4-0.8,0.9-1.2,1.4
			c-0.3,0.6-0.5,1.2-0.5,2c0,0.5,0.1,1.1,0.3,1.6s0.6,1,1,1.4c0.5,0.4,1,0.7,1.7,1c0.7,0.2,1.4,0.4,2.3,0.4c1.1,0,2-0.1,2.8-0.3
			c0.8-0.2,1.5-0.5,2.1-0.8c0.6-0.3,1.1-0.7,1.4-1.1c0.4-0.4,0.7-0.9,0.9-1.3c0.2-0.5,0.4-0.9,0.4-1.4s0.1-0.9,0.1-1.2
			c0-1-0.2-1.9-0.7-2.6c-0.5-0.7-1.1-1.4-1.8-2c-0.7-0.6-1.6-1.1-2.5-1.6S9,96.5,8,96.1c-1-0.5-2-1-2.9-1.5c-1-0.5-1.8-1.1-2.5-1.8
			s-1.4-1.4-1.8-2.3c-0.5-0.9-0.7-1.9-0.7-3c0-1.5,0.3-2.9,1-4.2C1.6,82,2.5,80.9,3.5,80s2.3-1.6,3.8-2.1s2.9-0.8,4.5-0.8
			c1.3,0,2.5,0.2,3.4,0.5c1,0.3,1.7,0.7,2.3,1.2s1,1.1,1.3,1.7c0.3,0.7,0.4,1.3,0.4,2c0,0.8-0.1,1.5-0.4,2.2s-0.6,1.3-1,1.8
			c-0.4,0.5-0.8,0.9-1.3,1.3c-0.5,0.3-0.9,0.6-1.2,0.7L14.8,87.7z"/>
		<path class="st0" d="M24.4,109.9c-0.6,0-1.1-0.2-1.5-0.5c-0.4-0.3-0.7-0.8-0.9-1.4s-0.4-1.3-0.5-2s-0.1-1.6-0.1-2.4
			c0-1.3,0.1-2.5,0.2-3.6c0.1-1.1,0.2-2,0.4-2.7s0.3-1.4,0.4-1.8c0.1-0.4,0.2-0.7,0.3-0.8c0.1-0.1,0.2-0.2,0.4-0.3
			c0.1-0.1,0.3-0.2,0.5-0.3c0.2-0.1,0.3-0.1,0.5-0.2s0.3-0.1,0.4-0.1c0.3,0,0.5,0.1,0.6,0.2s0.2,0.3,0.2,0.6c0,0,0,0.1-0.1,0.4
			c0,0.3-0.1,0.6-0.2,1.1c-0.1,0.5-0.1,1-0.2,1.6s-0.1,1.2-0.2,1.9c-0.1,0.7-0.1,1.4-0.1,2.1c0,0.7-0.1,1.4-0.1,2
			c0,0.6,0,1.1,0.1,1.6c0,0.5,0.1,0.9,0.2,1.3c0.1,0.4,0.2,0.7,0.4,0.9s0.3,0.3,0.6,0.3s0.5-0.2,0.7-0.5c0.2-0.3,0.4-0.7,0.6-1.2
			s0.4-1,0.5-1.6s0.3-1.2,0.4-1.8c0.1-0.6,0.3-1.2,0.4-1.8c0.1-0.6,0.2-1,0.3-1.4c0.1-0.2,0.2-0.4,0.3-0.5c0.1-0.2,0.3-0.3,0.5-0.4
			s0.4-0.2,0.7-0.3c0.2-0.1,0.5-0.1,0.7-0.1c0.2,0,0.3,0,0.3,0.1s0.1,0.3,0.1,0.5c0,1.2,0.1,2.3,0.2,3.4c0.1,1.1,0.3,2.1,0.6,2.9
			s0.6,1.5,0.9,2.1c0.4,0.5,0.8,0.8,1.2,0.8c0.3,0,0.6-0.1,0.9-0.4c0.3-0.2,0.5-0.5,0.7-0.9c0.2-0.4,0.4-0.7,0.5-1.1
			c0.1-0.4,0.2-0.8,0.3-1.1c-0.5-0.2-1-0.6-1.5-1.1s-0.9-1.1-1.2-1.7c-0.3-0.7-0.6-1.4-0.8-2.1c-0.2-0.8-0.3-1.5-0.3-2.3
			c0-0.4,0-0.9,0.1-1.3c0.1-0.4,0.2-0.8,0.4-1.1c0.2-0.3,0.4-0.6,0.7-0.8c0.3-0.2,0.6-0.3,1-0.3c0.5,0,1,0.2,1.4,0.5
			c0.4,0.3,0.7,0.8,1,1.3c0.3,0.6,0.4,1.2,0.6,1.9c0.1,0.7,0.2,1.5,0.2,2.3c0,0.6,0,1.3-0.1,2c-0.1,0.7-0.2,1.4-0.3,2h0.4
			c0.7,0,1.2-0.2,1.7-0.7s0.9-1,1.2-1.7l0.2-0.4l0.8,0.6l-0.2,0.4c-0.4,0.8-1,1.5-1.6,2c-0.7,0.5-1.5,0.8-2.4,0.8h-0.3
			c-0.2,0.7-0.4,1.4-0.7,2s-0.6,1.1-0.9,1.6s-0.8,0.8-1.2,1.1c-0.4,0.3-0.9,0.4-1.4,0.4c-0.6,0-1.1-0.1-1.5-0.3
			c-0.4-0.2-0.8-0.5-1.1-0.9s-0.6-0.8-0.8-1.2c-0.2-0.5-0.4-0.9-0.5-1.4s-0.2-1-0.3-1.4c-0.1-0.5-0.1-0.9-0.2-1.2
			c-0.1,0.4-0.2,0.9-0.3,1.4s-0.3,1-0.4,1.5s-0.3,1-0.5,1.4s-0.5,0.8-0.7,1.2c-0.3,0.3-0.6,0.6-1,0.8
			C25.2,109.8,24.8,109.9,24.4,109.9z M33.5,97.4c0,0.6,0.1,1.2,0.2,1.8c0.1,0.6,0.3,1.2,0.6,1.8c0.2,0.6,0.5,1.1,0.9,1.5
			c0.3,0.4,0.7,0.8,1.1,1c0-0.2,0-0.3,0-0.5c0-0.2,0-0.4,0-0.7c0-0.2,0-0.4,0-0.7s0-0.4,0-0.6c0-0.7,0-1.4-0.1-2.1s-0.2-1.3-0.4-1.8
			c-0.2-0.5-0.4-1-0.6-1.3c-0.2-0.3-0.5-0.5-0.8-0.5c-0.2,0-0.4,0.1-0.5,0.2c-0.1,0.1-0.2,0.3-0.3,0.5s-0.1,0.4-0.2,0.6
			S33.5,97.2,33.5,97.4z"/>
		<path class="st0" d="M41.8,101.3l-0.2,0.4l-0.2,0.4l-0.8-0.6l0.2-0.4c0.3-0.7,0.6-1.3,0.8-2c0.2-0.7,0.4-1.3,0.5-1.9
			s0.3-1.1,0.3-1.5c0.1-0.4,0.2-0.8,0.3-1c0.1-0.2,0.2-0.3,0.3-0.4s0.3-0.2,0.5-0.2c0.2-0.1,0.3-0.1,0.5-0.1c0.1,0,0.3,0,0.3,0
			c0.3,0,0.5,0.1,0.6,0.2s0.1,0.3,0.1,0.6c0,0.1,0,0.5-0.1,1.1s-0.1,1.3-0.2,2.1c-0.1,0.9-0.1,1.8-0.2,2.9c-0.1,1.1-0.1,2.2-0.1,3.3
			c0,0.8,0,1.5,0.1,1.9c0.1,0.5,0.2,0.8,0.3,1.1s0.3,0.4,0.4,0.4c0.1,0.1,0.3,0.1,0.5,0.1c0.2,0,0.4-0.1,0.7-0.3
			c0.3-0.2,0.6-0.5,0.9-1c0.4-0.5,0.8-1.1,1.2-1.9c0.5-0.8,1-1.8,1.6-3l0.2-0.4l0.8,0.6l-0.2,0.4c-0.5,1-1,1.9-1.5,2.9
			s-1,1.8-1.5,2.5c-0.5,0.7-1,1.3-1.5,1.8s-1,0.7-1.5,0.7c-0.5,0-1-0.1-1.4-0.3s-0.7-0.6-1-1.1c-0.3-0.5-0.4-1.1-0.6-2
			c-0.1-0.8-0.2-1.8-0.2-3c0-0.3,0-0.7,0-1.1s0-0.8,0-1.2H41.8z M45.8,89.9c0,0.5-0.2,0.8-0.5,1.1c-0.3,0.3-0.7,0.5-1.1,0.5
			c-0.4,0-0.8-0.2-1.1-0.5c-0.3-0.3-0.5-0.7-0.5-1.1c0-0.4,0.2-0.8,0.5-1.1s0.7-0.5,1.1-0.5c0.5,0,0.8,0.2,1.1,0.5
			S45.8,89.4,45.8,89.9z"/>
		<path class="st0" d="M53,97.5c0.2-0.5,0.5-0.9,0.8-1.4c0.3-0.4,0.7-0.8,1.1-1.2c0.4-0.3,0.9-0.6,1.3-0.8c0.5-0.2,1-0.3,1.6-0.3
			c0.8,0,1.5,0.2,2.1,0.6s1.1,0.9,1.5,1.5c0.4,0.6,0.7,1.3,0.9,2.1c0.2,0.8,0.3,1.7,0.3,2.5c0,1.3-0.1,2.5-0.4,3.6s-0.6,2-1.1,2.8
			c0.7-0.5,1.4-1.2,2.1-2.1c0.7-0.9,1.4-2,2.1-3.4l0.2-0.4l0.8,0.6l-0.2,0.4c-0.6,1.2-1.3,2.3-2,3.2c-0.7,1-1.5,1.8-2.3,2.5
			c-0.8,0.7-1.6,1.2-2.5,1.6c-0.9,0.4-1.8,0.5-2.7,0.5c-0.8,0-1.6-0.2-2.2-0.5s-1.2-0.8-1.6-1.3v9.2c0,0.5,0,0.9-0.1,1.2
			s-0.2,0.6-0.4,0.8c-0.2,0.2-0.4,0.3-0.7,0.4c-0.3,0.1-0.6,0.1-1,0.1c-0.3,0-0.5,0-0.6-0.1s-0.2-0.3-0.2-0.5c0-0.1,0-0.3,0-0.5
			c0-0.2,0.1-0.6,0.1-1.1c0-0.5,0.1-1.1,0.1-1.9c0-0.8,0-1.8,0-3v-10.8c0-1.4,0-2.6,0-3.5c0-0.9,0-1.5,0-2c0-0.5,0-0.8,0-1
			c0-0.2,0-0.4,0-0.5c0-0.1,0.1-0.3,0.2-0.4c0.1-0.1,0.3-0.2,0.5-0.4c0.2-0.1,0.4-0.2,0.7-0.3c0.2-0.1,0.5-0.1,0.7-0.1
			s0.4,0.1,0.5,0.2s0.2,0.3,0.2,0.6V97.5z M56.9,95.6c-0.5,0-1.1,0.2-1.5,0.6c-0.5,0.4-0.9,0.9-1.2,1.5c-0.3,0.6-0.6,1.2-0.8,2
			c-0.2,0.7-0.3,1.4-0.3,2.1v2.2c0,0.7,0.1,1.3,0.3,1.9c0.2,0.6,0.4,1.1,0.8,1.5c0.3,0.4,0.7,0.7,1.1,0.9s0.9,0.3,1.3,0.3
			c1.1,0,1.9-0.6,2.5-1.7c0.6-1.1,0.8-2.9,0.8-5.4c0-0.8-0.1-1.6-0.2-2.3c-0.1-0.7-0.3-1.3-0.5-1.9c-0.2-0.5-0.6-0.9-1-1.2
			S57.4,95.6,56.9,95.6z"/>
		<path class="st0" d="M71.4,107.7c0.5,0,0.9-0.1,1.4-0.4s1-0.6,1.4-1.1c0.5-0.5,1-1.1,1.5-1.9c0.5-0.8,1.1-1.7,1.6-2.8l0.2-0.4
			l0.8,0.6l-0.2,0.4c-0.7,1.4-1.4,2.6-2.1,3.6c-0.7,1-1.4,1.8-2.1,2.4s-1.3,1.1-2,1.4c-0.7,0.3-1.3,0.4-1.9,0.4
			c-0.8,0-1.6-0.2-2.3-0.5s-1.2-0.8-1.7-1.4s-0.8-1.3-1-2.1c-0.2-0.8-0.4-1.6-0.4-2.5c0-1.4,0.2-2.7,0.6-3.8s0.9-2.1,1.5-3
			s1.4-1.5,2.2-1.9c0.8-0.5,1.7-0.7,2.6-0.7c0.9,0,1.6,0.2,2.1,0.7c0.5,0.5,0.7,1,0.7,1.7c0,0.7-0.2,1.3-0.6,1.9
			c-0.4,0.6-0.9,1.1-1.5,1.7c-0.6,0.6-1.4,1.1-2.2,1.6c-0.8,0.5-1.7,1.1-2.7,1.7c0.1,0.7,0.2,1.3,0.5,1.8c0.2,0.6,0.5,1,0.8,1.4
			c0.3,0.4,0.7,0.7,1.2,0.9S70.9,107.7,71.4,107.7z M72.1,96.9c0-0.5-0.1-0.9-0.4-1.2c-0.3-0.3-0.6-0.4-1-0.4
			c-0.3,0-0.7,0.1-1.1,0.4c-0.4,0.2-0.7,0.6-1,1.2s-0.6,1.2-0.8,2s-0.3,1.8-0.3,3v0.4c0.4-0.2,0.9-0.5,1.5-0.9
			c0.5-0.4,1-0.8,1.5-1.3s0.9-1,1.2-1.5S72.1,97.4,72.1,96.9z"/>
		<path class="st0" d="M105,77.1c1.4,0,2.5,0.2,3.6,0.5s1.9,0.8,2.6,1.5c0.7,0.6,1.2,1.3,1.6,2.2c0.3,0.8,0.5,1.7,0.5,2.6
			c0,1-0.2,2-0.5,3c-0.3,0.9-0.8,1.8-1.4,2.7c-0.6,0.8-1.3,1.6-2.1,2.4s-1.7,1.4-2.6,2c-0.9,0.6-1.9,1.2-2.9,1.6c-1,0.5-2,0.9-3,1.2
			c0.7,0.6,1.3,1.4,1.9,2.2c0.6,0.8,1.1,1.7,1.6,2.6c0.5,0.9,1,1.9,1.5,2.9s1,1.9,1.6,2.8s1.2,1.8,1.8,2.6s1.4,1.5,2.2,2.2
			c0.8,0.6,1.8,1.1,2.8,1.5c1,0.4,2.2,0.5,3.6,0.5l0.1,0.8c-0.2,0-0.4,0.1-0.6,0.1c-0.2,0-0.4,0-0.7,0.1s-0.6,0-0.9,0
			c-1.7,0-3.2-0.2-4.4-0.6c-1.3-0.4-2.4-0.9-3.3-1.6c-0.9-0.7-1.7-1.4-2.4-2.3s-1.2-1.8-1.7-2.8c-0.5-1-0.9-2-1.3-3
			c-0.4-1-0.7-2-1.1-2.9c-0.4-0.9-0.7-1.8-1.1-2.6c-0.4-0.8-0.9-1.5-1.4-2.1c-0.3,0.1-0.5,0.1-0.8,0.2s-0.5,0.1-0.8,0.1
			c0,0.9,0,1.7,0,2.4s0,1.3-0.1,1.8c0,0.5-0.1,1-0.1,1.4s-0.1,0.8-0.1,1.1c-0.1,1-0.4,1.9-0.6,2.6c-0.3,0.7-0.6,1.3-1,1.7
			s-0.8,0.8-1.3,1c-0.5,0.2-1.1,0.3-1.7,0.3c-0.8,0-1.6-0.2-2.4-0.7c-0.7-0.5-1.4-1.2-1.9-2.2s-1-2.2-1.3-3.6s-0.5-3.1-0.5-5
			c0-2,0.2-3.9,0.6-5.7c0.4-1.8,1-3.5,1.8-5.1c0.8-1.6,1.7-3,2.9-4.3c1.1-1.3,2.4-2.4,3.7-3.3c1.4-0.9,2.9-1.6,4.5-2.1
			S103.2,77.1,105,77.1z M93,96.1c0-0.3,0.1-0.6,0.4-0.9c0.3-0.2,0.6-0.4,1.1-0.5c0-1.3-0.1-2.4-0.1-3.5s-0.1-2-0.1-2.7
			c0-0.9-0.1-1.7-0.1-2.4c0.1-0.1,0.2-0.1,0.3-0.2c0.1-0.1,0.2-0.1,0.4-0.1s0.3-0.1,0.5-0.1c0.6,0,1.1,0.1,1.4,0.3s0.5,0.6,0.5,1.1
			c0,1.5,0,3,0,4.3s0,2.5,0,3.7c0.4,0.1,0.8,0.3,1.2,0.4s0.7,0.4,1.1,0.6c1.2-0.3,2.4-0.8,3.6-1.4c1.2-0.6,2.3-1.4,3.3-2.3
			c1-0.9,1.8-2.1,2.4-3.4c0.6-1.3,0.9-2.8,0.9-4.5c0-1.1-0.2-2.1-0.5-2.8s-0.7-1.4-1.2-1.9c-0.5-0.5-1.1-0.9-1.8-1.1
			s-1.5-0.4-2.3-0.4c-1.3,0-2.6,0.2-3.9,0.6c-1.3,0.4-2.5,1-3.6,1.7s-2.2,1.8-3.1,3c-1,1.2-1.8,2.6-2.5,4.2
			c-0.7,1.6-1.2,3.5-1.6,5.5s-0.6,4.4-0.6,6.9c0,1.1,0.1,2.2,0.2,3.2s0.3,2,0.6,2.8s0.6,1.4,1,1.9c0.4,0.5,1,0.7,1.6,0.7
			c0.4,0,0.7-0.1,1-0.2c0.3-0.1,0.6-0.4,0.8-0.9s0.4-1.1,0.6-1.9s0.2-2,0.2-3.4c0-0.5,0-1,0-1.4c0-0.4,0-0.8,0-1.2s0-0.7,0-1.1
			c0-0.4,0-0.8,0-1.2c-0.5-0.1-0.9-0.3-1.2-0.6C93.1,96.8,93,96.4,93,96.1z M94,96.1c0,0.1,0,0.2,0.1,0.3c0,0.1,0.2,0.2,0.5,0.2
			v-0.9C94.2,95.8,94,95.9,94,96.1z M97.3,96.6c0.1,0,0.2,0,0.3,0c0.1,0,0.2,0,0.3-0.1c-0.1-0.1-0.2-0.1-0.3-0.2
			c-0.1-0.1-0.2-0.1-0.3-0.1V96.6z"/>
		<path class="st0" d="M113.2,101.3l-0.2,0.4l-0.2,0.4l-0.8-0.6l0.2-0.4c0.3-0.7,0.6-1.3,0.8-2c0.2-0.7,0.4-1.3,0.5-1.9
			s0.3-1.1,0.3-1.5c0.1-0.4,0.2-0.8,0.3-1c0.1-0.2,0.2-0.3,0.3-0.4s0.3-0.2,0.5-0.2c0.2-0.1,0.3-0.1,0.5-0.1c0.1,0,0.3,0,0.3,0
			c0.3,0,0.5,0.1,0.6,0.2s0.1,0.3,0.1,0.6c0,0.1,0,0.5-0.1,1.1s-0.1,1.3-0.2,2.1c-0.1,0.9-0.1,1.8-0.2,2.9c-0.1,1.1-0.1,2.2-0.1,3.3
			c0,0.8,0,1.5,0.1,1.9c0.1,0.5,0.2,0.8,0.3,1.1s0.3,0.4,0.4,0.4c0.1,0.1,0.3,0.1,0.5,0.1c0.2,0,0.4-0.1,0.7-0.3
			c0.3-0.2,0.6-0.5,0.9-1c0.4-0.5,0.8-1.1,1.2-1.9c0.5-0.8,1-1.8,1.6-3l0.2-0.4l0.8,0.6l-0.2,0.4c-0.5,1-1,1.9-1.5,2.9
			s-1,1.8-1.5,2.5c-0.5,0.7-1,1.3-1.5,1.8s-1,0.7-1.5,0.7c-0.5,0-1-0.1-1.4-0.3s-0.7-0.6-1-1.1c-0.3-0.5-0.4-1.1-0.6-2
			c-0.1-0.8-0.2-1.8-0.2-3c0-0.3,0-0.7,0-1.1s0-0.8,0-1.2H113.2z M117.2,89.9c0,0.5-0.2,0.8-0.5,1.1c-0.3,0.3-0.7,0.5-1.1,0.5
			c-0.4,0-0.8-0.2-1.1-0.5c-0.3-0.3-0.5-0.7-0.5-1.1c0-0.4,0.2-0.8,0.5-1.1s0.7-0.5,1.1-0.5c0.5,0,0.8,0.2,1.1,0.5
			S117.2,89.4,117.2,89.9z"/>
		<path class="st0" d="M127.3,117.3c0-0.6,0.1-1.2,0.3-1.7s0.5-1.2,0.9-1.8c0.4-0.6,0.8-1.2,1.3-1.9c0.5-0.7,1-1.3,1.6-2v-3.7
			c-0.3,0.6-0.7,1.2-1.1,1.6s-0.8,0.9-1.2,1.2c-0.4,0.3-0.9,0.6-1.3,0.7c-0.5,0.2-0.9,0.2-1.4,0.2c-0.6,0-1.2-0.1-1.8-0.4
			c-0.6-0.3-1.1-0.8-1.5-1.4s-0.8-1.4-1.1-2.3c-0.3-0.9-0.4-2-0.4-3.3c0-1.1,0.1-2.1,0.4-3.1c0.2-1,0.6-1.9,1.1-2.8
			c0.5-0.8,1.1-1.5,1.8-2s1.6-0.8,2.6-0.8c0.8,0,1.5,0.2,2.2,0.5s1.2,0.8,1.7,1.4v-0.2c0-0.2,0.1-0.5,0.2-0.7
			c0.1-0.2,0.3-0.4,0.6-0.5s0.5-0.2,0.7-0.3c0.3-0.1,0.5-0.1,0.7-0.1c0.2,0,0.4,0,0.5,0.1s0.1,0.2,0.1,0.3c0,0.2,0,0.7-0.1,1.4
			c-0.1,0.7-0.1,1.8-0.1,3.2v8.5c0.3-0.4,0.7-0.9,1-1.3c0.4-0.5,0.7-1,1.1-1.6c0.4-0.5,0.7-1.1,1.1-1.7c0.3-0.6,0.7-1.1,1-1.7
			l0.2-0.4l0.8,0.6l-0.2,0.4c-0.3,0.6-0.7,1.3-1.1,1.9c-0.4,0.7-0.8,1.3-1.3,2s-0.9,1.3-1.3,1.9c-0.4,0.6-0.9,1.1-1.2,1.6v4.2
			c0,1.2-0.1,2.2-0.3,3.1s-0.5,1.5-0.9,2.1s-0.8,0.9-1.3,1.1s-1.1,0.4-1.7,0.4c-0.7,0-1.4-0.2-1.9-0.7
			C127.5,118.7,127.3,118.1,127.3,117.3z M127.6,107.9c0.4,0,0.8-0.1,1.2-0.4s0.8-0.5,1.1-0.9c0.3-0.4,0.6-0.8,0.9-1.2
			c0.3-0.4,0.5-0.9,0.6-1.3v-5.5c0-0.6-0.1-1.1-0.3-1.6c-0.2-0.5-0.4-0.9-0.7-1.2s-0.6-0.6-1-0.8c-0.4-0.2-0.8-0.3-1.2-0.3
			c-0.6,0-1.2,0.2-1.6,0.6s-0.9,0.9-1.2,1.5s-0.5,1.3-0.7,2.1s-0.2,1.6-0.2,2.4c0,1,0.1,1.9,0.2,2.7c0.1,0.8,0.3,1.5,0.6,2.1
			c0.3,0.6,0.6,1,1,1.3S127.1,107.9,127.6,107.9z M129.7,118.7c0.2,0,0.4,0,0.6-0.1c0.2-0.1,0.4-0.3,0.6-0.6
			c0.2-0.3,0.3-0.7,0.4-1.3s0.2-1.4,0.2-2.4v-2.9c-0.9,1.1-1.6,2.1-2.2,3.1c-0.6,1-0.8,1.9-0.8,2.7c0,0.4,0.1,0.8,0.3,1.1
			C129,118.5,129.3,118.7,129.7,118.7z"/>
		<path class="st0" d="M141,103.1c0,0.6,0,1.3-0.1,2c0,0.7-0.1,1.4-0.2,2.1c-0.1,0.7-0.3,1.4-0.5,2.1s-0.6,1.3-1,1.9l-1.5-0.4
			c0.3-1.1,0.5-2.2,0.6-3.4c0.1-1.2,0.1-2.4,0.1-3.6c0-1.3,0-2.6-0.1-3.9c-0.1-1.3-0.2-2.6-0.3-3.9c-0.1-1.3-0.2-2.6-0.3-4
			c-0.1-1.3-0.1-2.7-0.1-4c0-0.8,0.1-1.5,0.3-2.1c0.2-0.6,0.4-1.1,0.7-1.5c0.3-0.4,0.6-0.7,1-0.9c0.4-0.2,0.7-0.3,1.1-0.3
			c0.5,0,0.9,0.2,1.2,0.5s0.5,0.8,0.7,1.4c0.1,0.6,0.2,1.3,0.2,2.1c0,0.8,0,1.6-0.1,2.5c-0.1,0.9-0.2,1.8-0.3,2.7
			c-0.1,0.9-0.3,1.8-0.5,2.7c-0.2,0.9-0.3,1.7-0.5,2.4c-0.2,0.8-0.3,1.4-0.4,1.9c0,0.1,0,0.2,0,0.3c0,0.1,0,0.2,0,0.3
			c0.3-0.6,0.6-1.3,1-2c0.4-0.7,0.8-1.4,1.3-2c0.5-0.6,1-1.1,1.6-1.5s1.2-0.6,1.9-0.6c1,0,1.7,0.3,2.2,1c0.5,0.7,0.7,1.6,0.7,2.8
			c0,0.8,0,1.7-0.1,2.4s-0.2,1.5-0.3,2.3s-0.2,1.4-0.3,2.1c-0.1,0.7-0.1,1.3-0.1,2c0,0.8,0.2,1.2,0.6,1.2c0.2,0,0.4-0.2,0.8-0.5
			c0.3-0.3,0.6-0.8,1-1.4c0.4-0.6,0.8-1.2,1.2-2s0.8-1.5,1.2-2.3l0.2-0.4l0.8,0.6l-0.2,0.4c-0.5,0.9-0.9,1.8-1.4,2.7
			c-0.5,0.9-1,1.8-1.5,2.5c-0.5,0.7-1.1,1.4-1.6,1.8c-0.5,0.5-1.1,0.7-1.6,0.7c-0.2,0-0.5,0-0.7-0.1s-0.5-0.2-0.7-0.4
			s-0.4-0.5-0.5-0.8s-0.2-0.8-0.2-1.3c0-0.5,0-1.1,0.1-1.7c0.1-0.6,0.1-1.2,0.2-1.9s0.2-1.3,0.2-1.9c0.1-0.6,0.2-1.2,0.2-1.8
			c0.1-0.6,0.1-1.1,0.2-1.5s0.1-0.8,0.1-1.1c0-0.7-0.1-1.3-0.3-1.6c-0.2-0.3-0.5-0.5-0.9-0.5c-0.5,0-1,0.2-1.5,0.7
			c-0.5,0.5-0.9,1-1.4,1.7s-0.8,1.4-1.2,2.2c-0.4,0.8-0.7,1.5-0.9,2.2c0,0.2,0,0.4,0,0.6C141,102.8,141,102.9,141,103.1z
			 M139.8,86.4c0,0.5,0,1.2,0.1,1.9s0.1,1.6,0.2,2.5c0.1,0.9,0.1,1.8,0.2,2.8c0.1,1,0.2,1.9,0.3,2.9c0.1-0.7,0.3-1.5,0.4-2.4
			s0.3-1.8,0.4-2.7c0.1-0.9,0.2-1.8,0.3-2.6c0.1-0.8,0.1-1.6,0-2.2c0-0.7-0.1-1.2-0.3-1.6c-0.1-0.4-0.4-0.6-0.6-0.6
			c-0.2,0-0.5,0.1-0.7,0.4C139.9,85.1,139.8,85.6,139.8,86.4z"/>
		<path class="st0" d="M153.7,103.5c0-1.4,0.1-2.8,0.2-4.2c0.1-1.4,0.2-2.8,0.4-4.2h-1.8l0.2-1.2h1.7c0.2-1.3,0.4-2.7,0.6-4
			c0.2-1.3,0.4-2.7,0.5-4h2c0,0.3-0.1,0.7-0.1,1.2c0,0.5-0.1,1.2-0.2,1.9c-0.1,0.7-0.1,1.5-0.2,2.3s-0.1,1.7-0.2,2.6h3.8l-0.2,1.2
			h-3.7c-0.1,0.7-0.1,1.5-0.1,2.2c0,0.7-0.1,1.4-0.1,2s-0.1,1.2-0.1,1.8c0,0.5,0,1,0,1.4c0,1,0,1.8,0.1,2.5s0.1,1.2,0.3,1.6
			c0.1,0.4,0.3,0.7,0.5,0.9c0.2,0.2,0.4,0.3,0.7,0.3c0.3,0,0.7-0.2,1.1-0.5s0.8-0.8,1.2-1.3c0.4-0.6,0.9-1.2,1.3-2
			c0.4-0.7,0.9-1.5,1.3-2.4l0.2-0.4l0.8,0.6l-0.2,0.4c-0.6,1.2-1.2,2.3-1.8,3.3c-0.6,1-1.2,1.8-1.7,2.5c-0.6,0.7-1.1,1.2-1.7,1.5
			c-0.5,0.4-1.1,0.5-1.6,0.5s-1-0.1-1.4-0.4s-0.7-0.6-1-1.1c-0.3-0.5-0.5-1.2-0.6-2C153.8,105.6,153.7,104.6,153.7,103.5z"/>
	</g>
	<g>
		<path class="st1" d="M93.4,31.5c2.4-6.2,4.7-12,7.1-17.9c0.4-1,0.8-2,0.6-3.1c-0.3-1.9-1.6-3.3-3.5-3.6c-2-0.3-3.8,0.7-4.6,2.7
			c-1.4,3.4-2.7,6.8-4.1,10.2c-0.2,0.5-0.4,0.9-0.6,1.4c-2.9-2.1-4.3-2.1-6.9,0.1c-2.3-2.4-4.2-2.5-6.8-0.2c-0.4,0.4-0.6,0.3-0.9,0
			c-2.9-2.2-5.8-1.4-7.2,1.9c-1.6,3.9-3.1,7.7-4.6,11.6c-2.9,7.6-0.2,14.2,7.2,17.5c2.7,1.2,5.5,2.3,8.6,2.7c5.7,0.7,9.9-1.6,13-6.2
			c1.1-1.6,2-3.3,2.9-5c1.7-3.1,4.1-5.4,7.3-6.9c1.9-0.9,2.8-3,2.1-5c-0.7-2.1-2.8-3.3-4.9-2.8C96.4,29.4,95.1,30.5,93.4,31.5z"/>
		<path class="st0" d="M89.5,2.4C89.5,2.4,89.5,2.5,89.5,2.4C85.5,1.9,81.9,2,78.3,3c-3.7,1.1-7,3-9.6,6c-0.5,0.5-0.9,1.1-0.2,1.7
			c0.6,0.5,1.1,0,1.5-0.5C75,5,81.6,3,89,4.4c0.2,0,0.1,0.1-0.1,0.3c-0.6,0.5-1.7,0.9-0.9,1.9c0.7,0.9,1.5,0,2.1-0.4
			c3.2-2.3,2.9-1.5,0.8-5c-0.1-0.1-0.1-0.2-0.2-0.3c-0.3-0.5-0.7-1.1-1.4-0.6c-0.8,0.5-0.5,1.1-0.1,1.7C89.2,2,89.3,2.1,89.5,2.4z"
			/>
		<path class="st0" d="M62.5,40.2c0,3.6,1.4,6.3,4.1,8.3c3.8,2.8,8.1,4.4,12.9,4.6c4.3,0.2,7.3-2.1,9.6-5.5c1.1-1.6,2-3.4,3-5.1
			c1.8-3.2,4.4-5.6,7.7-7.2c1.4-0.7,1.9-1.9,1.4-3.1c-0.6-1.3-2-2-3.3-1.2c-2.7,1.5-5.6,2.8-6.7,6.1c-0.2,0.6-0.5,1.1-1.2,0.8
			c-0.9-0.3-0.7-1-0.4-1.7c2-5,4-10,5.9-15c1.1-2.7,2.2-5.5,3.2-8.2c0.8-2.1,0.5-3.5-0.9-4.1c-1.5-0.6-2.6,0.2-3.5,2.3
			c-2.7,6.9-5.5,13.8-8.2,20.7c-0.1,0.3-0.2,0.6-0.3,0.9c-0.2,0.6-0.7,0.9-1.3,0.6c-0.6-0.3-0.6-0.7-0.4-1.3
			c0.8-2.1,1.6-4.2,2.5-6.2c0.1-0.3,0.3-0.7,0.4-1c0.4-1.4-0.1-2.6-1.2-3.1c-1.2-0.5-2.5,0-3.1,1.4c-0.9,2-1.5,4-2.4,5.9
			c-0.3,0.8-0.7,2-1.6,2c-1.5-0.1-0.4-1.8-0.1-2.7c0.4-1.2,1-2.4,1.4-3.5c0.5-1.5,0-2.9-1.2-3.4c-1.3-0.5-2.5,0.1-3.2,1.6
			c-0.7,1.7-1.4,3.4-2,5.1c-0.2,0.6-0.6,1.2-1.3,0.9c-0.9-0.3-0.6-1-0.4-1.5c0.3-0.9,0.7-1.7,1-2.6c0.5-1.4,0-2.6-1.2-3.1
			c-1.1-0.5-2.6-0.1-3.1,1.1c-2.3,5.1-4.6,10.2-5.9,15.7C62.5,39.2,62.5,39.8,62.5,40.2z"/>
	</g>
</g>
</svg>
