<?xml version="1.0" encoding="utf-8"?>
<!-- Generator: Adobe Illustrator 19.0.0, SVG Export Plug-In . SVG Version: 6.00 Build 0)  -->
<svg version="1.1" id="Capa_1" xmlns="http://www.w3.org/2000/svg" xmlns:xlink="http://www.w3.org/1999/xlink" x="0px" y="0px"
	 viewBox="-67 44.8 63.2 63.2" style="enable-background:new -67 44.8 63.2 63.2;" xml:space="preserve">
<style type="text/css">
	.st0{fill:#91DC5A;}
	.st1{opacity:0.35;fill:#231F20;enable-background:new    ;}
	.st2{fill:#FFFFFF;}
</style>
<path class="st0" d="M-35.4,108C-52.8,108-67,93.8-67,76.4s14.2-31.6,31.6-31.6S-3.8,59-3.8,76.4C-3.8,93.9-17.9,108-35.4,108z"/>
<path class="st1" d="M-35.4,46.8c16.3,0,29.6,13.3,29.6,29.6S-19.1,106-35.4,106S-65,92.7-65,76.4S-51.8,46.8-35.4,46.8 M-35.4,44.8
	C-52.8,44.8-67,58.9-67,76.4S-52.9,108-35.4,108S-3.8,93.9-3.8,76.4S-18,44.8-35.4,44.8L-35.4,44.8z"/>
<g>
	<path class="st2" d="M-35.4,78.3c2.2,0,4-1.8,4-4s-1.8-4-4-4c-2.2,0-4,1.8-4,4S-37.6,78.3-35.4,78.3z M-35.4,71.4
		c0.8,0,1.5,0.4,1.5,0.9s-0.7,0.9-1.5,0.9c-0.8,0-1.5-0.4-1.5-0.9S-36.2,71.4-35.4,71.4z"/>
	<path class="st2" d="M-27.1,85.1h-1.7c-0.4-1-1-2-1.6-2.7c2.7-1.7,4.5-4.7,4.5-8.1c0-5.3-4.3-9.5-9.5-9.5c-5.3,0-9.5,4.3-9.5,9.5
		c0,3.4,1.8,6.4,4.5,8.1c-0.6,0.8-1.1,1.7-1.6,2.7h-1.7c-0.8,0-1.4,0.6-1.4,1.4c0,0.8,0.6,1.4,1.4,1.4h16.7c0.8,0,1.4-0.6,1.4-1.4
		C-25.6,85.8-26.3,85.1-27.1,85.1z M-42,74.3c0-3.6,3-6.6,6.6-6.6s6.6,3,6.6,6.6c0,3.6-3,6.6-6.6,6.6S-42,78-42,74.3z"/>
</g>
</svg>
