<?xml version="1.0" encoding="utf-8"?>
<!-- Generator: Adobe Illustrator 22.1.0, SVG Export Plug-In . SVG Version: 6.00 Build 0)  -->
<svg version="1.1" id="Capa_1" xmlns="http://www.w3.org/2000/svg" xmlns:xlink="http://www.w3.org/1999/xlink" x="0px" y="0px"
	 viewBox="0 0 51.9 52.7" style="enable-background:new 0 0 51.9 52.7;" xml:space="preserve">
<style type="text/css">
	.st0{fill:#EBF3FF;}
	.st1{fill:#546B8D;}
	.st2{fill:#FF9999;}
	.st3{fill:#424A60;}
	.st4{fill:none;stroke:#E65A5A;stroke-miterlimit:10;}
	.st5{fill:#B04141;}
	.st6{fill:#F8F2EC;}
	.st7{fill:#F8A9AC;}
	.st8{fill:#7EB1FA;}
	.st9{fill:#9E8CE8;}
	.st10{fill:#66E8A6;}
	.st11{fill:#FFE06D;}
	.st12{fill:#74D687;}
	.st13{fill:#FA7E7E;}
	.st14{fill:#FFBA6C;}
	.st15{fill:#FFA9CA;}
	.st16{fill:#E91E63;}
</style>
<g>
	<g>
		<path class="st0" d="M9.2,27.4l-0.7-0.9c-0.4-0.6-0.3-1.4,0.3-1.9l16.7-12.1c0.6-0.4,1.4-0.3,1.9,0.3l0.7,0.9
			c0.4,0.6,0.3,1.4-0.3,1.9L11.1,27.7C10.5,28.1,9.7,28,9.2,27.4z"/>
		<path class="st0" d="M3.4,40.4l-0.7-0.9C2.3,38.9,2.5,38,3,37.6l34.9-25.4c0.6-0.4,1.4-0.3,1.9,0.3l0.7,0.9
			c0.4,0.6,0.3,1.4-0.3,1.9L5.3,40.7C4.7,41.1,3.9,41,3.4,40.4z"/>
		<path class="st0" d="M11.7,44.5L11,43.6c-0.4-0.6-0.3-1.4,0.3-1.9l31.6-23c0.6-0.4,1.4-0.3,1.9,0.3l0.7,0.9
			c0.4,0.6,0.3,1.4-0.3,1.9l-31.6,23C13,45.2,12.1,45.1,11.7,44.5z"/>
		<path class="st0" d="M18.8,49.9L18.1,49c-0.4-0.6-0.3-1.4,0.3-1.9l24.7-18c0.6-0.4,1.4-0.3,1.9,0.3l0.7,0.9
			c0.4,0.6,0.3,1.4-0.3,1.9l-24.7,18C20.1,50.6,19.2,50.5,18.8,49.9z"/>
		<path class="st0" d="M33.3,38.6c0.2-0.2,0.4-0.3,0.6-0.5c1.1-0.9,1.2-2.2,0.1-2.3c-1.2-0.1-2.2-0.6-2.8-1.5
			c-0.6-0.9-0.8-2-0.5-3.1c0.2-1-1-1.4-2.2-0.6c-0.2,0.1-0.4,0.3-0.6,0.4c-1.1,0.8-2,1.8-2.6,2.9c-0.4,0.7-0.2,1.3,0.5,1.4
			c0.9,0.2,1.7,0.6,2.2,1.4c0.5,0.7,0.7,1.6,0.6,2.5c-0.1,0.7,0.4,1,1.2,0.9C30.9,40,32.1,39.5,33.3,38.6z"/>
	</g>
	<path class="st1" d="M36.3,52.7H17.6c-1.4,0-2.5-1.1-2.5-2.5V12.1c0-1.4,1.1-2.5,2.5-2.5h18.7c1.4,0,2.5,1.1,2.5,2.5v38.1
		C38.9,51.5,37.7,52.7,36.3,52.7z"/>
	<rect x="15.1" y="11.9" class="st2" width="23.8" height="38.4"/>
	<g>
		<path class="st3" d="M28.8,10.9h-5.5c-0.1,0-0.2-0.1-0.2-0.2l0,0c0-0.1,0.1-0.2,0.2-0.2h5.5c0.1,0,0.2,0.1,0.2,0.2l0,0
			C29,10.8,28.9,10.9,28.8,10.9z"/>
		<path class="st3" d="M30.6,10.9h-0.8c-0.1,0-0.2-0.1-0.2-0.2l0,0c0-0.1,0.1-0.2,0.2-0.2h0.8c0.1,0,0.2,0.1,0.2,0.2l0,0
			C30.9,10.8,30.7,10.9,30.6,10.9z"/>
	</g>
	<g>
		<path class="st4" d="M17.1,22.9c0,0-0.3-2.4,1.8-2.4s1.7,2.4,1.7,2.4"/>
		<path class="st4" d="M33.4,22.9c0,0-0.3-2.4,1.8-2.4s1.7,2.4,1.7,2.4"/>
		<g>
			<path class="st5" d="M23.2,27.6c0,0,5.3,0,6.2,0c0.9,0,3,0.1,2.5,2.1S29,32.9,27.7,33c-1.3,0.1-4.3-0.1-5.6-2.7
				C20.8,27.7,23.2,27.6,23.2,27.6z"/>
			<path class="st6" d="M28.9,29.7h-1.6c-0.2,0-0.4-0.2-0.4-0.4v-1.7h2.4v1.7C29.3,29.5,29.1,29.7,28.9,29.7z"/>
		</g>
	</g>
	<path class="st7" d="M35.8,50.3v-5c0-4.9-4-9-9-9h0c-4.9,0-9,4-9,9v5H35.8z"/>
	<g>
		<g>
			<g>
				<path class="st8" d="M40.1,2.5c-0.7,0-1.3-0.6-1.3-1.3c0-0.7,0.6-1.3,1.3-1.3c0.7,0,1.3,0.6,1.3,1.3C41.3,1.9,40.7,2.5,40.1,2.5
					z M40.1,0.5c-0.4,0-0.8,0.3-0.8,0.8c0,0.4,0.3,0.8,0.8,0.8c0.4,0,0.8-0.3,0.8-0.8C40.8,0.8,40.5,0.5,40.1,0.5z"/>
			</g>
			<g>
				<path class="st9" d="M3.8,47.4c-0.5,0-1-0.4-1-1c0-0.5,0.4-1,1-1s1,0.4,1,1C4.8,47,4.3,47.4,3.8,47.4z M3.8,46
					c-0.3,0-0.5,0.2-0.5,0.5c0,0.3,0.2,0.5,0.5,0.5s0.5-0.2,0.5-0.5C4.3,46.2,4.1,46,3.8,46z"/>
			</g>
			<g>
				<path class="st10" d="M46.5,38.2c-0.7,0-1.3-0.6-1.3-1.3c0-0.7,0.6-1.3,1.3-1.3c0.7,0,1.3,0.6,1.3,1.3
					C47.7,37.6,47.2,38.2,46.5,38.2z M46.5,36.2c-0.4,0-0.8,0.3-0.8,0.8c0,0.4,0.3,0.8,0.8,0.8c0.4,0,0.8-0.3,0.8-0.8
					C47.2,36.5,46.9,36.2,46.5,36.2z"/>
			</g>
			<g>
				<path class="st11" d="M10.9,9.2L9.2,7.5l1.7-1.7l1.7,1.7L10.9,9.2z M9.9,7.5l1,1l1-1l-1-1L9.9,7.5z"/>
			</g>
			<g>
				<path class="st12" d="M3.5,27.4H0l1.8-3.6L3.5,27.4z M0.8,26.9h1.9l-1-2L0.8,26.9z"/>
			</g>
			<g>
				<path class="st13" d="M51.9,48.7h-2.5l1.2-2.5L51.9,48.7z M50.2,48.2h0.9l-0.4-0.9L50.2,48.2z"/>
			</g>
		</g>
		<polygon class="st11" points="45.7,13.9 44.8,13.7 44,14.4 44,13.4 43.1,12.9 44,12.5 44.2,11.6 44.8,12.3 45.8,12.2 45.3,13 		
			"/>
	</g>
</g>
<circle class="st14" cx="92.1" cy="-36.4" r="0"/>
<g>
	<path class="st15" d="M94.1-36.7C94.1-36.7,94.1-36.7,94.1-36.7c0-0.4,0-0.4,0-0.4l0,0h0v-0.5h0.1c0,0,0,0,0,0v0.8
		C94.3-36.7,94.2-36.7,94.1-36.7L94.1-36.7L94.1-36.7z"/>
	<path class="st16" d="M94.2-37.6C94.2-37.6,94.2-37.6,94.2-37.6l0,0.8c0,0,0,0,0,0h-0.1c0,0,0,0,0,0v-0.2V-37c0,0,0,0,0,0l0,0v0v0
		v0v0v0v0v0v0v0v0v0v0v0v0v0v0v0v0v0v0v0v0H94.2 M94.2-37.6L94.2-37.6h-0.3v0h0.2v0h-0.2v0h0.2v0h-0.2v0h0.2v0h-0.2v0h0.2v0h-0.2v0
		h0.2v0h-0.2v0h0.2v0h-0.2v0h0.2v0h-0.2v0h0.2v0h-0.2v0h0.2v0h-0.2v0h0.2v0h-0.2v0h0.2v0h-0.2v0h0.2v0.3c0,0,0,0,0,0h0.1
		c0,0,0,0,0,0L94.2-37.6C94.3-37.6,94.2-37.6,94.2-37.6L94.2-37.6z"/>
</g>
</svg>
